<svg xmlns="http://www.w3.org/2000/svg" viewBox="0 0 507.6 258.63"><defs><style>.cls-1{fill:#fff;}</style></defs><g id="Layer_2" data-name="Layer 2"><g id="Layer_1-2" data-name="Layer 1"><path class="cls-1" d="M215.65,42.93C202.5,25.3,186,19.74,165.21,27.62,171.35,12.49,193.94.37,215.36,0s44.36,11.61,51.08,26.61C238.44,20.11,229.37,28,215.65,42.93Z"/><path class="cls-1" d="M183.27,125.71c6.25,17,32.75,39.85,57.66,55.2.11-9.25.06-18.51-.08-27.77,0-3.75,1.64-5.52,6.35-5.53v37c4.37,2.49,8.63,4.71,12.66,6.58a13.44,13.44,0,0,1-.22-2.68c.22-15,.17-30,0-45.06-.05-4.87,1.43-7.17,5.56-7.19v57.27a57.81,57.81,0,0,0,13.29,3.89V101.64C257.42,129.74,219.54,139.42,183.27,125.71Z"/><path class="cls-1" d="M278.23,54.81c-2.13-14.21-14.05-24-28.67-23.46-15.91.56-27.14,11.11-27.69,26.32-.27,7.4-.35,14.83,0,22.21s-2.67,9.63-10.67,7c0-8.85.35-18-.07-27-.77-16.91-14.12-29.32-30.09-28.47-17.46.93-29.58,13.29-27.79,30.76a82.85,82.85,0,0,0,8.85,30.1c11.88,22.14,42.63,35.52,69.33,28.69C260.51,113.46,282.62,84.08,278.23,54.81ZM181.9,80a17.31,17.31,0,1,1,17.3-17.31A17.3,17.3,0,0,1,181.9,80Zm66.95-8.18c-5.11,1-7.25-1.55-7.13-7.33.19-8.67,3.62-12.64,11.84-13,5.38-.22,8.21,1.65,8.15,7.56C261.63,67.41,257.83,71.66,248.85,71.82Z"/><path class="cls-1" d="M201.25,50.6a23,23,0,0,0-23.07-10.91,1.5,1.5,0,0,1-1.86-1.07C172.16,29,167.93,19.49,163.78,9.9a3.47,3.47,0,0,0-3.53-2.32c-4.77,0-9.55,0-14.33,0a2.21,2.21,0,0,1-2.37-1.4C141.45,1.63,136-.37,131,1.33c-4.58,1.56-7.13,6.7-6.47,11.05a10.3,10.3,0,0,0,9.56,8.74c4.59.1,7.81-2.16,9.79-6.2a1.73,1.73,0,0,1,1.84-1.16c3.91,0,7.83.05,11.74,0a1.85,1.85,0,0,1,1.93,1.34q5,11.51,10.07,23c1.52,3.46,1.53,3.45-1.49,5.6a4.72,4.72,0,0,0-.63.44c-.68.66-1.25.52-2,0-4.55-3.49-9.18-6.89-13.7-10.42a10.08,10.08,0,0,0-7-2.55c-4.72.24-9.46,0-14.18.09a2.2,2.2,0,0,1-2.38-1.39A9.34,9.34,0,0,0,120,24.17a9.67,9.67,0,0,0-9.59,4.7,10.44,10.44,0,0,0,.43,11.48c4.34,6,14.06,5.33,17.17-1.49a2.32,2.32,0,0,1,2.46-1.54c4.78.07,9.56,0,14.33.06a4.11,4.11,0,0,1,2.25.68q6.51,4.77,12.92,9.68c2.1,1.61,2.05,1.67.84,4.09a11.74,11.74,0,0,0-.75,1.66,1.77,1.77,0,0,1-2,1.29c-5.39,0-10.78,0-16.17-.06a2.35,2.35,0,0,1-1.72-1.07c-2.37-4.66-6.88-6.89-11.93-5.56a10.11,10.11,0,0,0-7.34,10,10.27,10.27,0,0,0,8.64,9.9c3.63.55,8.74-1.32,10.54-5.8a1.82,1.82,0,0,1,2-1.3c4.83,0,9.66,0,14.49,0,1.25,0,1.5.51,1.57,1.63.14,2.17.4,4.34.75,6.49.28,1.73.32,1.79-1.45,1.79-10.57,0-21.14,0-31.71,0a2.16,2.16,0,0,1-2.33-1.47c-1.75-4.29-7.63-6.92-11.94-5.39-3.56,1.27-6.67,4.37-7.14,8.3a9.94,9.94,0,0,0,4.42,10c4.86,3.28,12.11,1.61,14.62-4a1.92,1.92,0,0,1,1.91-1.41c12,0,24.09,0,36.13,0a2.62,2.62,0,0,1,1.65.55c2.16,2,4.25,4,6.56,6.25a7.44,7.44,0,0,1-.57.78c-2.49,2.81-4.95,5.66-7.52,8.39a3.44,3.44,0,0,1-2.25.88c-8.28.06-16.57,0-24.85.06a2.28,2.28,0,0,1-2.45-1.5,9.87,9.87,0,0,0-10-5.53,10.22,10.22,0,0,0-8.87,7.65,10.39,10.39,0,0,0,6.27,12,10,10,0,0,0,12.53-4.9,2.61,2.61,0,0,1,2.71-1.65c8.85.06,17.69,0,26.53.06a4.5,4.5,0,0,0,3.72-1.62c3.32-3.78,6.73-7.48,10.05-11.26a2.94,2.94,0,0,1,3-1.12,22,22,0,0,0,18.65-5.39A23.59,23.59,0,0,0,201.25,50.6ZM134.3,15.9a5.12,5.12,0,1,1,5.12-5.12A5.12,5.12,0,0,1,134.3,15.9ZM118.81,39.46a5.12,5.12,0,1,1,5.12-5.12A5.12,5.12,0,0,1,118.81,39.46ZM130.9,63.24A5.12,5.12,0,1,1,136,58.12,5.12,5.12,0,0,1,130.9,63.24ZM114.17,79.15A5.12,5.12,0,1,1,119.29,74,5.12,5.12,0,0,1,114.17,79.15Zm8.67,23A5.13,5.13,0,1,1,128,97,5.12,5.12,0,0,1,122.84,102.13ZM181.67,80.2A17.31,17.31,0,1,1,199,62.89,17.31,17.31,0,0,1,181.67,80.2Z"/><circle class="cls-1" cx="181.94" cy="63.04" r="12.17"/><path class="cls-1" d="M23,218.77v39.07H14.75V218.77H0v-7.31H38.4v7.31Z"/><path class="cls-1" d="M70.48,257.84V237H52v20.89H43.79V211.46H52v18.17H70.48V211.46h8.13v46.38Z"/><path class="cls-1" d="M96.34,218.77v10.86h15.32v7H96.34v13.9h21v7.31H88.11V211.46h29.6v7.31Z"/><path class="cls-1" d="M132.54,234.25q0-9.9,5.43-16.76a17.57,17.57,0,0,1,14.52-6.85q10,0,15.29,6.2t5.29,17.41q0,11.22-5.53,17.8t-15.68,6.58q-9.35,0-14.33-6.52T132.54,234.25Zm8.55,0q0,8.15,2.76,12.61a8.85,8.85,0,0,0,8,4.46q6.16,0,9.41-4.37t3.25-12.7q0-16.29-12-16.3a9.54,9.54,0,0,0-8.45,4.42Q141.08,226.78,141.09,234.25Z"/><path class="cls-1" d="M217.74,258.47h-3.39l-10.13-29.25-9.84,29.25H191l-15.23-47h8.58l8.71,28,9.4-28h3.61l9.43,28,8.68-28h8.58Z"/><path class="cls-1" d="M237.65,257.84V211.46h8.24v39.07h20.95v7.31Z"/><path class="cls-1" d="M278.64,255.28l3-7.38a16.7,16.7,0,0,0,9.59,3.42q7.25,0,7.25-5.07a7.15,7.15,0,0,0-1.71-4.52q-1.71-2.16-7-4.83a34,34,0,0,1-7.19-4.4,11.78,11.78,0,0,1-2.85-4.1,13.58,13.58,0,0,1-1-5.26,11.51,11.51,0,0,1,3.95-8.93,14.55,14.55,0,0,1,10.11-3.54q8,0,11.81,3l-2.5,7.09a15.47,15.47,0,0,0-9.15-3.11,6.15,6.15,0,0,0-4.42,1.51,5.18,5.18,0,0,0-1.57,3.91q0,4,8.84,8.29a28.71,28.71,0,0,1,6.71,4.2,12.81,12.81,0,0,1,3.13,4.46,14.46,14.46,0,0,1,1.08,5.69,11.46,11.46,0,0,1-4.45,9.27q-4.44,3.64-11.92,3.64A21.26,21.26,0,0,1,278.64,255.28Z"/><path class="cls-1" d="M322.23,218.77v10.86h15.33v7H322.23v13.9h21v7.31H314V211.46h29.6v7.31Z"/><path class="cls-1" d="M382.67,213.93l-3.39,6.81c-1.83-1.84-4.79-2.76-8.86-2.76a11.45,11.45,0,0,0-9.5,4.86q-3.71,4.86-3.7,12.3T360.65,247a11.09,11.09,0,0,0,9.17,4.37,12.34,12.34,0,0,0,10.26-4.69l3.83,6.65q-5,5.36-14.76,5.35t-15.1-6.39q-5.39-6.41-5.38-17.45,0-10.29,6-17.2a19.24,19.24,0,0,1,15.27-6.92Q377.89,210.67,382.67,213.93Z"/><path class="cls-1" d="M409.42,218.77v39.07h-8.23V218.77H386.44v-7.31h38.4v7.31Z"/><path class="cls-1" d="M424.15,234.25q0-9.9,5.43-16.76a17.54,17.54,0,0,1,14.51-6.85q10,0,15.29,6.2t5.29,17.41q0,11.22-5.52,17.8t-15.69,6.58q-9.34,0-14.33-6.52T424.15,234.25Zm8.54,0q0,8.15,2.76,12.61a8.87,8.87,0,0,0,8,4.46c4.12,0,7.25-1.46,9.42-4.37s3.24-7.14,3.24-12.7q0-16.29-12-16.3a9.54,9.54,0,0,0-8.45,4.42Q432.7,226.78,432.69,234.25Z"/><path class="cls-1" d="M498.1,257.84l-12.38-19.15c-1.24,0-3-.1-5.22-.22v19.37H472V211.46c.47,0,2.25-.08,5.35-.24s5.61-.24,7.51-.24q17.65,0,17.66,13.68a12.53,12.53,0,0,1-2.44,7.51,13.2,13.2,0,0,1-6.14,4.78l13.71,20.89Zm-17.6-39.23V231.5c1.52.13,2.68.19,3.48.19q5.16,0,7.55-1.46c1.6-1,2.39-2.86,2.39-5.66a4.93,4.93,0,0,0-2.56-4.78q-2.57-1.36-8.07-1.37A22.82,22.82,0,0,0,480.5,218.61Z"/></g></g></svg>