<svg xmlns="http://www.w3.org/2000/svg" viewBox="0 0 244.03 276.07"><defs><style>.cls-1{fill:#ff8300;}.cls-2{fill:#231f20;}</style></defs><g id="Layer_2" data-name="Layer 2"><g id="Layer_1-2" data-name="Layer 1"><path class="cls-1" d="M155.75,60c-18.38-24.65-41.48-32.43-70.52-21.41C93.81,17.46,125.41.52,155.36,0s62,16.24,71.41,37.2C187.62,28.11,174.93,39.07,155.75,60Z"/><path class="cls-1" d="M110.48,175.77c8.75,23.74,45.79,55.71,80.63,77.18.15-12.94.07-25.89-.12-38.83-.07-5.25,2.29-7.72,8.88-7.74v51.77c6.11,3.49,12.06,6.6,17.69,9.21a18.49,18.49,0,0,1-.29-3.75c.3-21,.24-42,0-63-.06-6.82,2-10,7.78-10.05v80.07a80.85,80.85,0,0,0,18.57,5.44v-134C214.16,181.4,161.19,194.93,110.48,175.77Z"/><path class="cls-1" d="M243.26,76.64c-3-19.88-19.66-33.53-40.09-32.81-22.25.78-37.94,15.53-38.72,36.81-.38,10.34-.49,20.72,0,31.05s-3.73,13.46-14.91,9.77c0-12.37.48-25.11-.1-37.81-1.08-23.65-19.74-41-42.07-39.8C83,45.15,66,62.43,68.52,86.85,70,101.22,74.1,116.27,80.9,128.94c16.61,30.95,59.6,49.66,96.93,40.11C218.47,158.64,249.38,117.55,243.26,76.64ZM108.57,111.85a24.2,24.2,0,1,1,24.19-24.19A24.19,24.19,0,0,1,108.57,111.85Zm93.61-11.44c-7.15,1.34-10.14-2.16-10-10.24.26-12.13,5-17.68,16.54-18.15,7.54-.31,11.49,2.31,11.41,10.57C220.05,94.24,214.74,100.19,202.18,100.41Z"/><path class="cls-2" d="M135.63,70.75a32.18,32.18,0,0,0-32.26-15.26,2.09,2.09,0,0,1-2.6-1.49C94.94,40.6,89,27.25,83.23,13.84A4.83,4.83,0,0,0,78.3,10.6c-6.68,0-13.36,0-20,0a3.07,3.07,0,0,1-3.31-2C52,2.28,44.43-.51,37.45,1.87c-6.41,2.18-10,9.36-9.06,15.44,1,6.68,6.83,12.06,13.37,12.21s10.93-3,13.69-8.66A2.44,2.44,0,0,1,58,19.23c5.47.05,10.95.08,16.42,0a2.59,2.59,0,0,1,2.7,1.87q7,16.08,14.08,32.13c2.12,4.83,2.13,4.82-2.09,7.83a6.76,6.76,0,0,0-.87.61c-1,.93-1.76.73-2.78-.05C79.12,56.74,72.65,52,66.33,47.05c-2.94-2.3-5.89-3.76-9.85-3.56-6.59.32-13.21,0-19.82.12a3.07,3.07,0,0,1-3.33-1.94,13.05,13.05,0,0,0-11.27-7.88A13.55,13.55,0,0,0,8.65,40.36a14.61,14.61,0,0,0,.6,16c6.08,8.39,19.67,7.45,24-2.08a3.24,3.24,0,0,1,3.44-2.15c6.67.1,13.36,0,20,.08a5.75,5.75,0,0,1,3.14,1Q69,59.88,77.94,66.74c3,2.26,2.88,2.34,1.18,5.72a18.67,18.67,0,0,0-1.05,2.33,2.47,2.47,0,0,1-2.74,1.8c-7.53,0-15.07,0-22.6-.09A3.28,3.28,0,0,1,50.32,75C47,68.5,40.7,65.37,33.65,67.24a14.12,14.12,0,0,0-10.27,14A14.33,14.33,0,0,0,35.46,95.11c5.07.78,12.22-1.84,14.74-8.1a2.56,2.56,0,0,1,2.74-1.82c6.75,0,13.5.07,20.25,0,1.75,0,2.09.72,2.2,2.29q.3,4.56,1,9.08c.4,2.41.46,2.5-2,2.5-14.78,0-29.56,0-44.34,0a3,3,0,0,1-3.25-2c-2.44-6-10.67-9.69-16.69-7.54-5,1.78-9.33,6.11-10,11.6-.71,5.84,1.29,10.74,6.18,14.05,6.79,4.57,16.93,2.24,20.45-5.62a2.66,2.66,0,0,1,2.66-2c16.84,0,33.68,0,50.52.06a3.71,3.71,0,0,1,2.31.76c3,2.76,5.93,5.64,9.17,8.74a11.19,11.19,0,0,1-.79,1.09c-3.49,3.94-6.93,7.92-10.53,11.74A4.82,4.82,0,0,1,77,131.17c-11.58.09-23.16,0-34.75.09a3.22,3.22,0,0,1-3.43-2.1,13.77,13.77,0,0,0-13.93-7.73,14.29,14.29,0,0,0-12.4,10.7A14.5,14.5,0,0,0,21.23,149a14,14,0,0,0,17.52-6.85,3.65,3.65,0,0,1,3.79-2.3c12.36.09,24.73,0,37.09.08a6.26,6.26,0,0,0,5.2-2.27c4.64-5.28,9.41-10.45,14-15.73a4.11,4.11,0,0,1,4.23-1.57,30.77,30.77,0,0,0,26.08-7.54C141.38,102.07,143.88,84.71,135.63,70.75ZM42,22.23a7.16,7.16,0,1,1,7.16-7.15A7.15,7.15,0,0,1,42,22.23ZM20.35,55.17A7.16,7.16,0,1,1,27.51,48,7.17,7.17,0,0,1,20.35,55.17ZM37.26,88.41a7.16,7.16,0,1,1,7.16-7.16A7.15,7.15,0,0,1,37.26,88.41ZM13.87,110.67A7.16,7.16,0,1,1,21,103.51,7.16,7.16,0,0,1,13.87,110.67ZM26,142.79a7.16,7.16,0,1,1,7.16-7.16A7.16,7.16,0,0,1,26,142.79Zm82.25-30.66a24.2,24.2,0,1,1,24.2-24.2A24.19,24.19,0,0,1,108.24,112.13Z"/><circle class="cls-2" cx="108.63" cy="88.14" r="17.01"/></g></g></svg>