<svg xmlns="http://www.w3.org/2000/svg" viewBox="0 0 411.5 196.67"><defs><style>.cls-1{fill:#fff;}</style></defs><g id="Layer_2" data-name="Layer 2"><g id="Layer_1-2" data-name="Layer 1"><path class="cls-1" d="M110.34,42.52c-13-17.46-29.39-23-50-15.17,6.08-15,28.46-27,49.68-27.34S154,11.51,160.64,26.36C132.91,19.91,123.92,27.68,110.34,42.52Z"/><path class="cls-1" d="M78.26,124.52c6.2,16.82,32.44,39.46,57.12,54.67.11-9.17.05-18.34-.08-27.51-.05-3.71,1.62-5.47,6.29-5.48v36.68c4.33,2.47,8.55,4.67,12.53,6.52a13.31,13.31,0,0,1-.21-2.65c.22-14.88.17-29.76,0-44.64-.05-4.83,1.42-7.1,5.51-7.12v56.72a56.55,56.55,0,0,0,13.15,3.86v-94.9C151.71,128.51,114.19,138.09,78.26,124.52Z"/><path class="cls-1" d="M96.08,50.12A22.78,22.78,0,0,0,73.23,39.31a1.48,1.48,0,0,1-1.84-1.06C67.26,28.76,63.07,19.3,59,9.81a3.41,3.41,0,0,0-3.49-2.3c-4.73,0-9.46,0-14.2,0a2.18,2.18,0,0,1-2.34-1.39c-2.09-4.53-7.45-6.51-12.4-4.83C22,2.87,19.46,8,20.11,12.26a10.21,10.21,0,0,0,9.47,8.66c4.55.1,7.74-2.14,9.7-6.14a1.72,1.72,0,0,1,1.82-1.15c3.88,0,7.76,0,11.63,0a1.84,1.84,0,0,1,1.92,1.32q5,11.4,10,22.77c1.5,3.42,1.51,3.42-1.48,5.55a4.3,4.3,0,0,0-.62.43c-.68.65-1.24.52-2,0-4.5-3.46-9.08-6.82-13.56-10.32a10,10,0,0,0-7-2.52c-4.67.23-9.36,0-14,.08a2.17,2.17,0,0,1-2.36-1.37,9.22,9.22,0,0,0-8-5.58,9.58,9.58,0,0,0-9.5,4.65A10.34,10.34,0,0,0,6.56,40c4.3,5.94,13.92,5.28,17-1.47A2.29,2.29,0,0,1,26,37c4.73.08,9.47,0,14.2.06a4,4,0,0,1,2.22.68q6.45,4.72,12.8,9.58c2.08,1.6,2,1.66.83,4A12.8,12.8,0,0,0,55.31,53a1.77,1.77,0,0,1-2,1.28c-5.33,0-10.67,0-16-.06a2.33,2.33,0,0,1-1.7-1.06c-2.35-4.62-6.82-6.83-11.82-5.51a10,10,0,0,0-7.27,9.95,10.18,10.18,0,0,0,8.56,9.8c3.59.55,8.66-1.31,10.44-5.74a1.8,1.8,0,0,1,1.94-1.29c4.78,0,9.57,0,14.35,0,1.24,0,1.48.5,1.56,1.61.14,2.15.39,4.31.74,6.44.28,1.7.32,1.76-1.43,1.76-10.48,0-20.95,0-31.42,0A2.12,2.12,0,0,1,19,68.74c-1.73-4.25-7.56-6.86-11.82-5.34C3.65,64.66.57,67.73.1,71.62a9.86,9.86,0,0,0,4.38,9.95c4.81,3.24,12,1.59,14.48-4a1.89,1.89,0,0,1,1.89-1.39c11.93,0,23.86,0,35.79,0a2.58,2.58,0,0,1,1.63.54c2.14,2,4.2,4,6.5,6.19a8.89,8.89,0,0,1-.56.77c-2.47,2.79-4.91,5.61-7.46,8.31a3.35,3.35,0,0,1-2.22.87c-8.21.06-16.41,0-24.62.06a2.27,2.27,0,0,1-2.43-1.48A9.75,9.75,0,0,0,17.61,86,10.11,10.11,0,0,0,8.83,93.6,10.27,10.27,0,0,0,15,105.53a9.91,9.91,0,0,0,12.41-4.85,2.57,2.57,0,0,1,2.68-1.63c8.76.06,17.52,0,26.28.06A4.49,4.49,0,0,0,60.1,97.5c3.28-3.74,6.66-7.4,9.94-11.15a2.93,2.93,0,0,1,3-1.11A21.79,21.79,0,0,0,91.51,79.9,23.37,23.37,0,0,0,96.08,50.12ZM29.76,15.75a5.07,5.07,0,1,1,5.07-5.07A5.07,5.07,0,0,1,29.76,15.75ZM14.42,39.08A5.07,5.07,0,1,1,19.49,34,5.07,5.07,0,0,1,14.42,39.08Zm12,23.55a5.07,5.07,0,1,1,5.07-5.07A5.07,5.07,0,0,1,26.39,62.63ZM9.83,78.4a5.07,5.07,0,1,1,5.07-5.07A5.07,5.07,0,0,1,9.83,78.4Zm8.58,22.75a5.07,5.07,0,1,1,5.07-5.07A5.07,5.07,0,0,1,18.41,101.15ZM76.68,79.43A17.14,17.14,0,1,1,93.82,62.29,17.14,17.14,0,0,1,76.68,79.43Z"/><circle class="cls-1" cx="76.95" cy="62.44" r="12.05"/><path class="cls-1" d="M172.32,54.29c-2.11-14.08-13.92-23.75-28.39-23.24-15.76.56-26.88,11-27.43,26.07-.27,7.33-.35,14.68,0,22s-2.64,9.54-10.57,6.92c0-8.76.34-17.79-.07-26.78-.77-16.75-14-29-29.8-28.2C58.78,32,46.77,44.22,48.54,61.53a81.92,81.92,0,0,0,8.77,29.81c11.76,21.93,42.22,35.18,68.67,28.41C154.77,112.38,176.66,83.28,172.32,54.29ZM76.91,79.23A17.14,17.14,0,1,1,94.05,62.1,17.14,17.14,0,0,1,76.91,79.23Zm66.31-8.1c-5.06,1-7.18-1.53-7.06-7.25.19-8.6,3.58-12.53,11.72-12.86,5.34-.22,8.14,1.64,8.08,7.49C155.88,66.76,152.12,71,143.22,71.13Z"/><path class="cls-1" d="M205.6,38.15v38.7h-8.15V38.15H182.83V30.91h38v7.24Z"/><path class="cls-1" d="M252.64,76.85V56.15H234.36v20.7H226.2V30.91h8.16v18h18.28v-18h8.06V76.85Z"/><path class="cls-1" d="M278.26,38.15V48.91h15.18v6.93H278.26V69.6h20.82v7.25h-29V30.91h29.32v7.24Z"/><path class="cls-1" d="M184.72,113q0-9.83,5.38-16.61a17.4,17.4,0,0,1,14.37-6.79q9.92,0,15.15,6.15T224.86,113q0,11.1-5.48,17.62t-15.53,6.52q-9.25,0-14.19-6.46T184.72,113Zm8.46,0q0,8.05,2.73,12.48a8.79,8.79,0,0,0,7.94,4.42q6.1,0,9.32-4.33T216.39,113q0-16.16-11.92-16.15a9.47,9.47,0,0,0-8.37,4.37Q193.19,105.61,193.18,113Z"/><path class="cls-1" d="M269.1,137h-3.35l-10-29L246,137H242.6L227.52,90.43H236l8.62,27.72L254,90.43h3.58l9.35,27.72,8.59-27.72H284Z"/><path class="cls-1" d="M288.82,136.37V90.43H297v38.7h20.76v7.24Z"/><path class="cls-1" d="M184.72,193.35l3-7.31a16.52,16.52,0,0,0,9.5,3.39q7.19,0,7.18-5a7.1,7.1,0,0,0-1.69-4.48c-1.13-1.42-3.46-3-7-4.78a33.65,33.65,0,0,1-7.12-4.36,11.77,11.77,0,0,1-2.82-4.06,13.33,13.33,0,0,1-1-5.21,11.37,11.37,0,0,1,3.91-8.84,14.4,14.4,0,0,1,10-3.51q8,0,11.7,3l-2.48,7a15.29,15.29,0,0,0-9.06-3.07,6,6,0,0,0-4.37,1.49,5.1,5.1,0,0,0-1.56,3.87q0,3.94,8.75,8.22a28.44,28.44,0,0,1,6.65,4.15,12.87,12.87,0,0,1,3.11,4.42,14.34,14.34,0,0,1,1.06,5.63,11.39,11.39,0,0,1-4.4,9.19q-4.41,3.6-11.81,3.6A21,21,0,0,1,184.72,193.35Z"/><path class="cls-1" d="M227.9,157.19V168h15.17v6.93H227.9v13.77h20.82v7.24h-29V150h29.32v7.24Z"/><path class="cls-1" d="M287.76,152.4l-3.36,6.74q-2.72-2.73-8.78-2.73a11.34,11.34,0,0,0-9.4,4.81q-3.68,4.82-3.67,12.19T266,185.1a11,11,0,0,0,9.08,4.33,12.24,12.24,0,0,0,10.16-4.64l3.79,6.58q-5,5.31-14.61,5.3t-15-6.33q-5.33-6.33-5.33-17.28,0-10.19,5.91-17a19.08,19.08,0,0,1,15.13-6.85Q283,149.17,287.76,152.4Z"/><path class="cls-1" d="M314.26,157.19v38.7H306.1v-38.7H291.49V150h38v7.24Z"/><path class="cls-1" d="M328.84,172.53q0-9.81,5.38-16.61a17.39,17.39,0,0,1,14.37-6.78q9.92,0,15.15,6.14T369,172.53q0,11.1-5.48,17.62T348,196.67q-9.25,0-14.19-6.46T328.84,172.53Zm8.46,0q0,8.06,2.73,12.48a8.78,8.78,0,0,0,7.94,4.42q6.11,0,9.32-4.33t3.22-12.57q0-16.15-11.92-16.15a9.47,9.47,0,0,0-8.37,4.37Q337.31,165.13,337.3,172.53Z"/><path class="cls-1" d="M402.09,195.89l-12.26-19c-1.23,0-3-.1-5.17-.22v19.19h-8.47V150c.46,0,2.23-.08,5.3-.23s5.55-.24,7.43-.24q17.5,0,17.5,13.55a12.46,12.46,0,0,1-2.42,7.43,13,13,0,0,1-6.08,4.73l13.58,20.7ZM384.66,157V169.8c1.5.13,2.65.19,3.44.19,3.41,0,5.91-.48,7.48-1.44s2.37-2.84,2.37-5.62a4.89,4.89,0,0,0-2.54-4.73q-2.54-1.35-8-1.35A20.52,20.52,0,0,0,384.66,157Z"/></g></g></svg>