<svg xmlns="http://www.w3.org/2000/svg" viewBox="0 0 410.36 198.56"><defs><style>.cls-1{fill:#231f20;}</style></defs><g id="Layer_2" data-name="Layer 2"><g id="Layer_1-2" data-name="Layer 1"><path class="cls-1" d="M110.34,42.52c-13-17.46-29.39-23-50-15.17,6.08-15,28.46-27,49.68-27.34S154,11.51,160.64,26.36C132.91,19.91,123.92,27.68,110.34,42.52Z"/><path class="cls-1" d="M78.26,124.52c6.2,16.82,32.44,39.46,57.12,54.67.11-9.17.05-18.34-.08-27.51-.05-3.71,1.62-5.47,6.29-5.48v36.68c4.33,2.47,8.55,4.67,12.53,6.52a13.31,13.31,0,0,1-.21-2.65c.22-14.88.17-29.76,0-44.64-.05-4.83,1.42-7.1,5.51-7.12v56.72a56.55,56.55,0,0,0,13.15,3.86v-94.9C151.71,128.51,114.19,138.09,78.26,124.52Z"/><path class="cls-1" d="M96.08,50.12A22.78,22.78,0,0,0,73.23,39.31a1.48,1.48,0,0,1-1.84-1.06C67.26,28.76,63.07,19.3,59,9.81a3.41,3.41,0,0,0-3.49-2.3c-4.73,0-9.46,0-14.2,0a2.18,2.18,0,0,1-2.34-1.39c-2.09-4.53-7.45-6.51-12.4-4.83C22,2.87,19.46,8,20.11,12.26a10.21,10.21,0,0,0,9.47,8.66c4.55.1,7.74-2.14,9.7-6.14a1.72,1.72,0,0,1,1.82-1.15c3.88,0,7.76,0,11.63,0a1.84,1.84,0,0,1,1.92,1.32q5,11.4,10,22.77c1.5,3.42,1.51,3.42-1.48,5.55a4.3,4.3,0,0,0-.62.43c-.68.65-1.24.52-2,0-4.5-3.46-9.08-6.82-13.56-10.32a10,10,0,0,0-7-2.52c-4.67.23-9.36,0-14,.08a2.17,2.17,0,0,1-2.36-1.37,9.22,9.22,0,0,0-8-5.58,9.58,9.58,0,0,0-9.5,4.65A10.34,10.34,0,0,0,6.56,40c4.3,5.94,13.92,5.28,17-1.47A2.29,2.29,0,0,1,26,37c4.73.08,9.47,0,14.2.06a4,4,0,0,1,2.22.68q6.45,4.72,12.8,9.58c2.08,1.6,2,1.66.83,4A12.8,12.8,0,0,0,55.31,53a1.77,1.77,0,0,1-2,1.28c-5.33,0-10.67,0-16-.06a2.33,2.33,0,0,1-1.7-1.06c-2.35-4.62-6.82-6.83-11.82-5.51a10,10,0,0,0-7.27,9.95,10.18,10.18,0,0,0,8.56,9.8c3.59.55,8.66-1.31,10.44-5.74a1.8,1.8,0,0,1,1.94-1.29c4.78,0,9.57,0,14.35,0,1.24,0,1.48.5,1.56,1.61.14,2.15.39,4.31.74,6.44.28,1.7.32,1.76-1.43,1.76-10.48,0-20.95,0-31.42,0A2.12,2.12,0,0,1,19,68.74c-1.73-4.25-7.56-6.86-11.82-5.34C3.65,64.66.57,67.73.1,71.62a9.86,9.86,0,0,0,4.38,9.95c4.81,3.24,12,1.59,14.48-4a1.89,1.89,0,0,1,1.89-1.39c11.93,0,23.86,0,35.79,0a2.58,2.58,0,0,1,1.63.54c2.14,2,4.2,4,6.5,6.19a8.89,8.89,0,0,1-.56.77c-2.47,2.79-4.91,5.61-7.46,8.31a3.35,3.35,0,0,1-2.22.87c-8.21.06-16.41,0-24.62.06a2.27,2.27,0,0,1-2.43-1.48A9.75,9.75,0,0,0,17.61,86,10.11,10.11,0,0,0,8.83,93.6,10.27,10.27,0,0,0,15,105.53a9.91,9.91,0,0,0,12.41-4.85,2.57,2.57,0,0,1,2.68-1.63c8.76.06,17.52,0,26.28.06A4.49,4.49,0,0,0,60.1,97.5c3.28-3.74,6.66-7.4,9.94-11.15a2.93,2.93,0,0,1,3-1.11A21.79,21.79,0,0,0,91.51,79.9,23.37,23.37,0,0,0,96.08,50.12ZM29.76,15.75a5.07,5.07,0,1,1,5.07-5.07A5.07,5.07,0,0,1,29.76,15.75ZM14.42,39.08A5.07,5.07,0,1,1,19.49,34,5.07,5.07,0,0,1,14.42,39.08Zm12,23.55a5.07,5.07,0,1,1,5.07-5.07A5.07,5.07,0,0,1,26.39,62.63ZM9.83,78.4a5.07,5.07,0,1,1,5.07-5.07A5.07,5.07,0,0,1,9.83,78.4Zm8.58,22.75a5.07,5.07,0,1,1,5.07-5.07A5.07,5.07,0,0,1,18.41,101.15ZM76.68,79.43A17.14,17.14,0,1,1,93.82,62.29,17.14,17.14,0,0,1,76.68,79.43Z"/><circle class="cls-1" cx="76.95" cy="62.44" r="12.05"/><path class="cls-1" d="M172.32,54.29c-2.11-14.08-13.92-23.75-28.39-23.24-15.76.56-26.88,11-27.43,26.07-.27,7.33-.35,14.68,0,22s-2.64,9.54-10.57,6.92c0-8.76.34-17.79-.07-26.78-.77-16.75-14-29-29.8-28.2C58.78,32,46.77,44.22,48.54,61.53a81.92,81.92,0,0,0,8.77,29.81c11.76,21.93,42.22,35.18,68.67,28.41C154.77,112.38,176.66,83.28,172.32,54.29ZM76.91,79.23A17.14,17.14,0,1,1,94.05,62.1,17.14,17.14,0,0,1,76.91,79.23Zm66.31-8.1c-5.06,1-7.18-1.53-7.06-7.25.19-8.6,3.58-12.53,11.72-12.86,5.34-.22,8.14,1.64,8.08,7.49C155.88,66.76,152.12,71,143.22,71.13Z"/><path class="cls-1" d="M204.47,40v38.7h-8.16V40H181.7V32.79h38V40Z"/><path class="cls-1" d="M251.5,78.73V58H233.22v20.7h-8.15V32.79h8.15v18H251.5v-18h8.06V78.73Z"/><path class="cls-1" d="M277.12,40V50.79H292.3v6.93H277.12V71.49h20.82v7.24H269V32.79h29.32V40Z"/><path class="cls-1" d="M183.58,114.89q0-9.81,5.38-16.6a17.39,17.39,0,0,1,14.38-6.79q9.9,0,15.14,6.14t5.24,17.25q0,11.1-5.47,17.62T202.71,139q-9.26,0-14.19-6.45T183.58,114.89Zm8.47,0q0,8.06,2.73,12.48a8.76,8.76,0,0,0,7.93,4.42q6.12,0,9.33-4.33t3.21-12.57q0-16.15-11.91-16.15a9.49,9.49,0,0,0-8.38,4.37Q192.05,107.49,192.05,114.89Z"/><path class="cls-1" d="M268,138.88h-3.36l-10-29-9.75,29h-3.36L226.39,92.31h8.49L243.51,120l9.31-27.72h3.58L265.74,120l8.59-27.72h8.5Z"/><path class="cls-1" d="M287.69,138.25V92.31h8.15V131H316.6v7.24Z"/><path class="cls-1" d="M183.58,195.23l3-7.3a16.6,16.6,0,0,0,9.5,3.38q7.18,0,7.19-5a7.12,7.12,0,0,0-1.7-4.49c-1.13-1.42-3.45-3-7-4.78a33.51,33.51,0,0,1-7.11-4.36,11.58,11.58,0,0,1-2.83-4.06,13.47,13.47,0,0,1-1-5.21,11.39,11.39,0,0,1,3.9-8.84,14.41,14.41,0,0,1,10-3.51q8,0,11.7,3l-2.48,7a15.34,15.34,0,0,0-9.06-3.07,6.08,6.08,0,0,0-4.38,1.49,5.13,5.13,0,0,0-1.55,3.87c0,2.64,2.92,5.37,8.75,8.22a28.66,28.66,0,0,1,6.65,4.15,12.94,12.94,0,0,1,3.1,4.42,14.38,14.38,0,0,1,1.07,5.63A11.35,11.35,0,0,1,207,195q-4.41,3.6-11.8,3.61A21,21,0,0,1,183.58,195.23Z"/><path class="cls-1" d="M226.76,159.08v10.75h15.18v6.93H226.76v13.77h20.82v7.24h-29V151.83h29.32v7.25Z"/><path class="cls-1" d="M286.62,154.28,283.27,161q-2.73-2.73-8.78-2.73a11.34,11.34,0,0,0-9.41,4.82,19.56,19.56,0,0,0-3.67,12.18q0,7.36,3.4,11.7a11,11,0,0,0,9.08,4.32,12.2,12.2,0,0,0,10.16-4.64l3.8,6.59q-5,5.3-14.61,5.3t-15-6.34q-5.34-6.33-5.33-17.28,0-10.19,5.91-17A19.07,19.07,0,0,1,274,151.05C279.25,151.05,283.47,152.13,286.62,154.28Z"/><path class="cls-1" d="M313.12,159.08v38.69H305V159.08H290.35v-7.25h38v7.25Z"/><path class="cls-1" d="M327.7,174.41a25.92,25.92,0,0,1,5.38-16.6A17.41,17.41,0,0,1,347.46,151q9.9,0,15.14,6.14t5.24,17.25q0,11.1-5.47,17.62t-15.54,6.53q-9.25,0-14.19-6.46T327.7,174.41Zm8.47,0q0,8.06,2.73,12.48a8.76,8.76,0,0,0,7.93,4.42q6.12,0,9.33-4.32t3.21-12.58q0-16.14-11.91-16.15a9.44,9.44,0,0,0-8.37,4.38Q336.17,167,336.17,174.41Z"/><path class="cls-1" d="M401,197.77l-12.27-19c-1.23,0-2.95-.09-5.17-.22v19.19h-8.47V151.83c.46,0,2.23-.08,5.3-.23s5.55-.24,7.44-.24q17.49,0,17.49,13.55a12.42,12.42,0,0,1-2.41,7.43,13.06,13.06,0,0,1-6.08,4.74l13.57,20.69Zm-17.44-38.85v12.76c1.5.13,2.66.19,3.45.19q5.11,0,7.48-1.44t2.37-5.61a4.91,4.91,0,0,0-2.54-4.74c-1.7-.9-4.36-1.35-8-1.35A20.55,20.55,0,0,0,383.52,158.92Z"/></g></g></svg>