<svg xmlns="http://www.w3.org/2000/svg" viewBox="0 0 407.2 196.87"><defs><style>.cls-1{fill:#231f20;}.cls-2{fill:#ff8300;}</style></defs><g id="Layer_2" data-name="Layer 2"><g id="Layer_1-2" data-name="Layer 1"><path class="cls-1" d="M201.3,38.34V77h-8.15V38.34H178.54V31.1h38v7.24Z"/><path class="cls-1" d="M248.34,77V56.34H230.06V77h-8.15V31.1h8.15v18h18.28v-18h8.06V77Z"/><path class="cls-1" d="M274,38.34V49.1h15.18V56H274V69.8h20.82V77h-29V31.1h29.32v7.24Z"/><path class="cls-1" d="M180.42,113.2q0-9.81,5.38-16.6a17.37,17.37,0,0,1,14.37-6.79q9.92,0,15.15,6.14t5.24,17.25q0,11.1-5.47,17.62t-15.54,6.52q-9.26,0-14.19-6.45T180.42,113.2Zm8.47,0q0,8.05,2.72,12.48a8.78,8.78,0,0,0,7.94,4.42c4.08,0,7.18-1.44,9.33-4.33s3.21-7.07,3.21-12.57q0-16.15-11.92-16.15a9.48,9.48,0,0,0-8.37,4.37Q188.89,105.8,188.89,113.2Z"/><path class="cls-1" d="M264.8,137.19h-3.35l-10-29-9.75,29h-3.35L223.22,90.62h8.5l8.62,27.72,9.32-27.72h3.57l9.35,27.72,8.59-27.72h8.5Z"/><path class="cls-1" d="M284.53,136.56V90.62h8.15v38.7h20.76v7.24Z"/><path class="cls-1" d="M180.42,193.54l3-7.3a16.6,16.6,0,0,0,9.5,3.38q7.19,0,7.18-5a7.11,7.11,0,0,0-1.69-4.49q-1.69-2.13-7-4.78a33.93,33.93,0,0,1-7.12-4.36,11.68,11.68,0,0,1-2.82-4.06,13.29,13.29,0,0,1-1-5.21,11.37,11.37,0,0,1,3.91-8.84,14.41,14.41,0,0,1,10-3.51q8,0,11.69,3l-2.47,7a15.34,15.34,0,0,0-9.07-3.07,6.06,6.06,0,0,0-4.37,1.49,5.09,5.09,0,0,0-1.55,3.87c0,2.64,2.91,5.37,8.75,8.22a28.55,28.55,0,0,1,6.64,4.15,12.83,12.83,0,0,1,3.11,4.42,14.37,14.37,0,0,1,1.06,5.63,11.37,11.37,0,0,1-4.4,9.19q-4.41,3.6-11.81,3.61A21,21,0,0,1,180.42,193.54Z"/><path class="cls-1" d="M223.6,157.39v10.75h15.18v6.93H223.6v13.77h20.82v7.24h-29V150.14h29.33v7.25Z"/><path class="cls-1" d="M283.46,152.59l-3.35,6.74q-2.73-2.73-8.78-2.73a11.33,11.33,0,0,0-9.41,4.82q-3.68,4.82-3.67,12.18t3.4,11.7a11,11,0,0,0,9.08,4.32A12.22,12.22,0,0,0,280.89,185l3.79,6.59q-5,5.3-14.61,5.3t-15-6.34q-5.33-6.33-5.33-17.28,0-10.19,5.91-17a19.08,19.08,0,0,1,15.13-6.85Q278.72,149.36,283.46,152.59Z"/><path class="cls-1" d="M310,157.39v38.69H301.8V157.39H287.19v-7.25h38v7.25Z"/><path class="cls-1" d="M324.54,172.72q0-9.81,5.38-16.6a17.38,17.38,0,0,1,14.38-6.79q9.9,0,15.14,6.14t5.24,17.25q0,11.1-5.47,17.62t-15.54,6.53q-9.26,0-14.19-6.46T324.54,172.72Zm8.47,0q0,8.06,2.72,12.48a8.78,8.78,0,0,0,7.94,4.42c4.08,0,7.18-1.44,9.33-4.32s3.21-7.08,3.21-12.58q0-16.15-11.91-16.15a9.47,9.47,0,0,0-8.38,4.38Q333,165.32,333,172.72Z"/><path class="cls-1" d="M397.79,196.08l-12.26-19c-1.23,0-3-.09-5.17-.22v19.19h-8.47V150.14c.46,0,2.23-.08,5.3-.23s5.55-.24,7.43-.24q17.5,0,17.5,13.55a12.42,12.42,0,0,1-2.41,7.43,13,13,0,0,1-6.09,4.74l13.58,20.69Zm-17.43-38.85V170c1.5.13,2.65.19,3.45.19,3.4,0,5.9-.48,7.48-1.44s2.36-2.83,2.36-5.61a4.89,4.89,0,0,0-2.54-4.74q-2.53-1.35-8-1.35A20.55,20.55,0,0,0,380.36,157.23Z"/><path class="cls-2" d="M107.48,42.52c-12.69-17.46-28.63-23-48.67-15.17C64.73,12.37,86.54.37,107.2,0S150,11.51,156.48,26.36C129.47,19.91,120.71,27.68,107.48,42.52Z"/><path class="cls-2" d="M76.23,124.52c6,16.82,31.6,39.46,55.64,54.67.11-9.17,0-18.34-.07-27.51-.06-3.71,1.57-5.47,6.12-5.48v36.68c4.22,2.47,8.32,4.67,12.21,6.52a13.31,13.31,0,0,1-.21-2.65c.21-14.88.17-29.76,0-44.64,0-4.83,1.38-7.1,5.36-7.12v56.72a54.12,54.12,0,0,0,12.82,3.86v-94.9C147.78,128.51,111.23,138.09,76.23,124.52Z"/><path class="cls-2" d="M167.86,54.29C165.8,40.21,154.3,30.54,140.2,31.05c-15.35.56-26.19,11-26.72,26.07-.26,7.33-.34,14.68,0,22S110.91,88.66,103.2,86c0-8.76.33-17.79-.07-26.78-.75-16.75-13.62-29-29-28.2C57.25,32,45.56,44.22,47.28,61.53a83.79,83.79,0,0,0,8.54,29.81c11.46,21.93,41.13,35.18,66.89,28.41C150.76,112.38,172.09,83.28,167.86,54.29ZM74.92,79.23A17.14,17.14,0,1,1,91.61,62.1,16.92,16.92,0,0,1,74.92,79.23Zm64.59-8.1c-4.93,1-7-1.53-6.88-7.25.19-8.6,3.49-12.53,11.42-12.86,5.2-.22,7.93,1.64,7.87,7.49C151.84,66.76,148.18,71,139.51,71.13Z"/><path class="cls-1" d="M93.59,50.12A22,22,0,0,0,71.33,39.31a1.43,1.43,0,0,1-1.79-1.06c-4-9.49-8.1-18.95-12.11-28.44A3.33,3.33,0,0,0,54,7.51c-4.61,0-9.22,0-13.83,0a2.11,2.11,0,0,1-2.28-1.39A9.57,9.57,0,0,0,25.84,1.32C21.42,2.87,19,8,19.59,12.26c.71,4.74,4.72,8.55,9.22,8.66s7.55-2.14,9.45-6.14A1.68,1.68,0,0,1,40,13.63c3.77,0,7.55,0,11.33,0a1.8,1.8,0,0,1,1.86,1.32Q58.08,26.34,63,37.71c1.46,3.42,1.47,3.42-1.44,5.55a4.21,4.21,0,0,0-.61.43c-.66.65-1.21.52-1.92,0-4.38-3.46-8.85-6.82-13.21-10.32A9.55,9.55,0,0,0,39,30.81c-4.55.23-9.11,0-13.67.08A2.1,2.1,0,0,1,23,29.52a9,9,0,0,0-7.78-5.58A9.25,9.25,0,0,0,6,28.59,10.57,10.57,0,0,0,6.39,40C10.58,45.9,20,45.24,23,38.49A2.22,2.22,0,0,1,25.33,37c4.61.08,9.22,0,13.83.06a3.84,3.84,0,0,1,2.16.68q6.28,4.72,12.46,9.58c2,1.6,2,1.66.81,4A14.2,14.2,0,0,0,53.87,53,1.71,1.71,0,0,1,52,54.26c-5.2,0-10.4,0-15.59-.06a2.28,2.28,0,0,1-1.67-1.06c-2.29-4.62-6.63-6.83-11.5-5.51a10,10,0,0,0-7.09,9.95,10.09,10.09,0,0,0,8.34,9.8,9.69,9.69,0,0,0,10.17-5.74,1.76,1.76,0,0,1,1.89-1.29c4.66,0,9.32,0,14,0,1.21,0,1.45.5,1.52,1.61.14,2.15.38,4.31.72,6.44.27,1.7.32,1.76-1.39,1.76-10.2,0-20.4,0-30.6,0a2.06,2.06,0,0,1-2.24-1.45C16.82,64.49,11.14,61.88,7,63.4a10.41,10.41,0,0,0-6.9,8.22,10,10,0,0,0,4.27,9.95,9.58,9.58,0,0,0,14.11-4c.36-.82.78-1.4,1.84-1.39,11.62,0,23.24,0,34.86,0a2.47,2.47,0,0,1,1.59.54c2.08,2,4.1,4,6.33,6.19a8.33,8.33,0,0,1-.55.77c-2.4,2.79-4.77,5.61-7.26,8.31a3.22,3.22,0,0,1-2.17.87c-8,.06-16,0-24,.06a2.21,2.21,0,0,1-2.37-1.48A9.46,9.46,0,0,0,17.15,86,9.93,9.93,0,0,0,8.6,93.6a10.34,10.34,0,0,0,6.05,11.93,9.55,9.55,0,0,0,12.09-4.85,2.51,2.51,0,0,1,2.61-1.63c8.53.06,17.07,0,25.6.06a4.31,4.31,0,0,0,3.59-1.61c3.2-3.74,6.49-7.4,9.69-11.15a2.8,2.8,0,0,1,2.92-1.11,20.85,20.85,0,0,0,18-5.34A23.81,23.81,0,0,0,93.59,50.12ZM29,15.75a5,5,0,0,1-4.94-5.07,4.94,4.94,0,1,1,9.88,0A5,5,0,0,1,29,15.75ZM14,39.08A5.07,5.07,0,1,1,19,34,5,5,0,0,1,14,39.08ZM25.71,62.63a5.07,5.07,0,1,1,4.94-5.07A5,5,0,0,1,25.71,62.63ZM9.57,78.4a5.07,5.07,0,0,1,0-10.14,5.07,5.07,0,0,1,0,10.14Zm8.36,22.75a5.07,5.07,0,1,1,4.94-5.07A5,5,0,0,1,17.93,101.15ZM74.69,79.43a17.14,17.14,0,1,1,16.7-17.14A16.92,16.92,0,0,1,74.69,79.43Z"/><ellipse class="cls-1" cx="74.96" cy="62.44" rx="11.74" ry="12.05"/></g></g></svg>