<svg xmlns="http://www.w3.org/2000/svg" viewBox="0 0 98.21 98.21"><defs><style>.cls-1{fill:#231f20;}.cls-2{font-size:11.35px;font-family:TrebuchetMS-Bold, Trebuchet MS;font-weight:700;}.cls-2,.cls-6{fill:#fff;}.cls-3{letter-spacing:-0.04em;}.cls-4{letter-spacing:-0.06em;}.cls-5{fill:#ff8300;}</style></defs><g id="Layer_2" data-name="Layer 2"><g id="Layer_1-2" data-name="Layer 1"><circle class="cls-1" cx="49.1" cy="49.1" r="49.1"/><text class="cls-2" transform="translate(23.02 64.72)">THE <tspan x="0" y="10.52">OW</tspan><tspan class="cls-3" x="18.02" y="10.52">L</tspan><tspan x="23.87" y="10.52"> </tspan><tspan x="0" y="21.04">SEC</tspan><tspan class="cls-4" x="19.21" y="21.04">T</tspan><tspan x="25.48" y="21.04">OR</tspan></text><path class="cls-5" d="M58.39,28.61c-4.14-5.55-9.34-7.3-15.88-4.82C44.44,19,51.56,15.22,58.3,15.1s14,3.66,16.09,8.38C65.57,21.43,62.71,23.9,58.39,28.61Z"/><path class="cls-5" d="M48.2,54.68c2,5.35,10.31,12.55,18.15,17.38,0-2.91,0-5.83,0-8.74,0-1.18.51-1.74,2-1.75V73.23c1.37.79,2.71,1.49,4,2.08a3.74,3.74,0,0,1-.06-.85c.06-4.72,0-9.46,0-14.18,0-1.54.45-2.26,1.75-2.27V76a18.48,18.48,0,0,0,4.19,1.23V47.1C71.54,56,59.62,59,48.2,54.68Z"/><path class="cls-5" d="M78.1,32.36a8.6,8.6,0,0,0-9-7.39c-5,.18-8.54,3.5-8.72,8.29-.08,2.33-.11,4.66,0,7s-.84,3-3.35,2.2c0-2.78.1-5.65,0-8.51a9.08,9.08,0,0,0-9.47-9c-5.5.3-9.32,4.19-8.75,9.69a26,26,0,0,0,2.79,9.48c3.74,7,13.42,11.18,21.82,9C72.52,50.82,79.48,41.57,78.1,32.36ZM47.77,40.29a5.45,5.45,0,1,1,5.44-5.45A5.45,5.45,0,0,1,47.77,40.29Zm21.08-2.58c-1.61.3-2.29-.49-2.25-2.31.06-2.73,1.14-4,3.73-4.08,1.69-.07,2.59.52,2.57,2.38C72.87,36.32,71.68,37.66,68.85,37.71Z"/><path class="cls-6" d="M53.86,31a7.25,7.25,0,0,0-7.26-3.44.47.47,0,0,1-.59-.33c-1.31-3-2.64-6-3.95-9A1.07,1.07,0,0,0,41,17.49c-1.5,0-3,0-4.51,0a.71.71,0,0,1-.75-.45,3.14,3.14,0,0,0-3.94-1.53,3.22,3.22,0,0,0,1,6.23A3.16,3.16,0,0,0,35.8,19.8a.55.55,0,0,1,.58-.37c1.24,0,2.47,0,3.7,0a.58.58,0,0,1,.61.42q1.58,3.62,3.17,7.24c.48,1.08.48,1.08-.47,1.76a1.43,1.43,0,0,0-.2.14c-.21.2-.39.16-.62,0-1.44-1.1-2.89-2.16-4.31-3.28a3.25,3.25,0,0,0-2.22-.8c-1.49.07-3,0-4.47,0a.7.7,0,0,1-.75-.44,2.92,2.92,0,0,0-2.54-1.77,3,3,0,0,0-3,1.48,3.28,3.28,0,0,0,.13,3.61,3.18,3.18,0,0,0,5.41-.47.73.73,0,0,1,.77-.48c1.51,0,3,0,4.52,0a1.25,1.25,0,0,1,.7.21q2.06,1.5,4.07,3.05c.66.51.65.52.26,1.29a4.83,4.83,0,0,0-.23.52.57.57,0,0,1-.62.41c-1.7,0-3.39,0-5.09,0a.74.74,0,0,1-.54-.34,3.18,3.18,0,0,0-6.07,1.41,3.24,3.24,0,0,0,2.72,3.12,3.19,3.19,0,0,0,3.32-1.83.59.59,0,0,1,.62-.41c1.52,0,3,0,4.56,0,.39,0,.47.16.49.52q.08,1,.24,2c.09.54.1.56-.45.56h-10a.67.67,0,0,1-.73-.46,3.22,3.22,0,0,0-3.76-1.7,3.34,3.34,0,0,0-2.25,2.62,3.17,3.17,0,0,0,6,1.89.61.61,0,0,1,.6-.44H41.32a.78.78,0,0,1,.52.18c.68.62,1.34,1.26,2.07,2,0,.05-.1.16-.18.25-.79.89-1.56,1.78-2.37,2.64a1.07,1.07,0,0,1-.71.28c-2.61,0-5.22,0-7.82,0a.73.73,0,0,1-.78-.47,3.11,3.11,0,0,0-3.14-1.75,3.23,3.23,0,0,0-2.79,2.41,3.27,3.27,0,0,0,2,3.8A3.15,3.15,0,0,0,32,47.1a.81.81,0,0,1,.86-.51h8.35a1.38,1.38,0,0,0,1.17-.51c1-1.19,2.12-2.35,3.16-3.54a.92.92,0,0,1,1-.35,7,7,0,0,0,5.87-1.7A7.43,7.43,0,0,0,53.86,31ZM32.78,20.11a1.62,1.62,0,1,1,1.61-1.62A1.62,1.62,0,0,1,32.78,20.11ZM27.9,27.52a1.61,1.61,0,1,1,1.61-1.61A1.61,1.61,0,0,1,27.9,27.52ZM31.71,35a1.62,1.62,0,1,1,1.61-1.61A1.61,1.61,0,0,1,31.71,35Zm-5.27,5a1.61,1.61,0,1,1,1.61-1.61A1.61,1.61,0,0,1,26.44,40Zm2.73,7.23a1.61,1.61,0,1,1,1.61-1.61A1.61,1.61,0,0,1,29.17,47.25Zm18.52-6.9a5.45,5.45,0,1,1,5.45-5.45A5.44,5.44,0,0,1,47.69,40.35Z"/><circle class="cls-6" cx="47.78" cy="34.95" r="3.83"/></g></g></svg>