<svg xmlns="http://www.w3.org/2000/svg" viewBox="0 0 98.95 98.95"><defs><style>.cls-1{fill:#fff;stroke:#003a70;stroke-miterlimit:10;stroke-width:0.74px;}.cls-2{font-size:11.35px;font-family:TrebuchetMS-Bold, Trebuchet MS;font-weight:700;}.cls-2,.cls-6{fill:#231f20;}.cls-3{letter-spacing:-0.04em;}.cls-4{letter-spacing:-0.06em;}.cls-5{fill:#ff8300;}</style></defs><g id="Layer_2" data-name="Layer 2"><g id="Layer_1-2" data-name="Layer 1"><circle class="cls-1" cx="49.47" cy="49.47" r="49.1"/><text class="cls-2" transform="translate(23.38 65.09)">THE <tspan x="0" y="10.52">OW</tspan><tspan class="cls-3" x="18.02" y="10.52">L</tspan><tspan x="23.87" y="10.52"> </tspan><tspan x="0" y="21.04">SEC</tspan><tspan class="cls-4" x="19.21" y="21.04">T</tspan><tspan x="25.48" y="21.04">OR</tspan></text><path class="cls-5" d="M58.76,29c-4.14-5.55-9.34-7.3-15.88-4.82,1.93-4.76,9-8.58,15.79-8.69s14,3.66,16.08,8.38C65.94,21.8,63.08,24.27,58.76,29Z"/><path class="cls-5" d="M48.56,55.05c2,5.35,10.32,12.54,18.16,17.38,0-2.92,0-5.83,0-8.74,0-1.19.51-1.74,2-1.75V73.6c1.37.79,2.71,1.49,4,2.08a4.36,4.36,0,0,1-.07-.85c.07-4.73.06-9.46,0-14.19,0-1.53.45-2.25,1.75-2.26v18a18.33,18.33,0,0,0,4.19,1.23V47.47C71.91,56.32,60,59.36,48.56,55.05Z"/><path class="cls-5" d="M78.47,32.73a8.6,8.6,0,0,0-9-7.39c-5,.17-8.55,3.49-8.72,8.29-.09,2.32-.11,4.66,0,7s-.84,3-3.36,2.2c0-2.79.11-5.66,0-8.52a9.08,9.08,0,0,0-9.47-9c-5.5.29-9.32,4.18-8.75,9.68A26,26,0,0,0,41.9,44.5c3.74,7,13.43,11.19,21.83,9C72.88,51.19,79.85,41.94,78.47,32.73ZM48.13,40.65a5.45,5.45,0,1,1,5.45-5.44A5.45,5.45,0,0,1,48.13,40.65Zm21.08-2.57c-1.61.3-2.28-.49-2.24-2.31.06-2.73,1.14-4,3.73-4.09,1.69-.07,2.58.53,2.56,2.39C73.24,36.69,72,38,69.21,38.08Z"/><path class="cls-6" d="M54.23,31.4A7.27,7.27,0,0,0,47,28a.46.46,0,0,1-.58-.33c-1.31-3-2.64-6-4-9a1.1,1.1,0,0,0-1.11-.73c-1.51,0-3,0-4.51,0a.69.69,0,0,1-.75-.44,3.14,3.14,0,0,0-3.94-1.53,3.22,3.22,0,0,0,1,6.22,3.14,3.14,0,0,0,3.08-1.95.54.54,0,0,1,.58-.36h3.7a.58.58,0,0,1,.61.42q1.57,3.62,3.17,7.23c.47,1.09.48,1.09-.47,1.77a1.37,1.37,0,0,0-.2.13c-.21.21-.4.17-.63,0-1.43-1.1-2.88-2.17-4.31-3.28a3.12,3.12,0,0,0-2.22-.8c-1.48.07-3,0-4.46,0a.69.69,0,0,1-.75-.44,2.93,2.93,0,0,0-2.54-1.77,3,3,0,0,0-3,1.48,3.28,3.28,0,0,0,.14,3.61,3.18,3.18,0,0,0,5.41-.47.72.72,0,0,1,.77-.48c1.5,0,3,0,4.51,0a1.26,1.26,0,0,1,.71.21c1.37,1,2.72,2,4.07,3.05.66.5.65.52.26,1.28a5,5,0,0,0-.23.53.55.55,0,0,1-.62.4c-1.7,0-3.39,0-5.09,0a.7.7,0,0,1-.54-.33A3.18,3.18,0,0,0,29,33.77a3.22,3.22,0,0,0,2.72,3.11A3.17,3.17,0,0,0,35,35.06a.59.59,0,0,1,.62-.41c1.52,0,3,0,4.56,0,.39,0,.47.16.49.51.05.69.13,1.37.24,2.05s.1.56-.46.56c-3.33,0-6.65,0-10,0a.69.69,0,0,1-.74-.46A3.2,3.2,0,0,0,26,35.62a3.32,3.32,0,0,0-2.25,2.61,3.17,3.17,0,0,0,6,1.9.61.61,0,0,1,.6-.44H41.69a.83.83,0,0,1,.52.17c.68.62,1.34,1.27,2.06,2a2.24,2.24,0,0,1-.17.25c-.79.88-1.56,1.78-2.37,2.64A1.12,1.12,0,0,1,41,45H33.19a.71.71,0,0,1-.77-.47,3.11,3.11,0,0,0-3.14-1.74,3.22,3.22,0,0,0-2.79,2.41,3.26,3.26,0,0,0,2,3.79,3.13,3.13,0,0,0,3.94-1.54.82.82,0,0,1,.85-.52c2.79,0,5.57,0,8.36,0a1.41,1.41,0,0,0,1.17-.51c1-1.19,2.12-2.35,3.16-3.54a.94.94,0,0,1,.95-.36,6.92,6.92,0,0,0,5.88-1.69A7.44,7.44,0,0,0,54.23,31.4ZM33.15,20.47a1.61,1.61,0,1,1,1.61-1.61A1.62,1.62,0,0,1,33.15,20.47Zm-4.88,7.42a1.61,1.61,0,1,1,1.61-1.61A1.61,1.61,0,0,1,28.27,27.89Zm3.81,7.49a1.62,1.62,0,1,1,1.61-1.62A1.62,1.62,0,0,1,32.08,35.38Zm-5.27,5a1.62,1.62,0,1,1,1.61-1.61A1.61,1.61,0,0,1,26.81,40.39Zm2.73,7.23A1.61,1.61,0,1,1,31.15,46,1.61,1.61,0,0,1,29.54,47.62Zm18.52-6.9a5.45,5.45,0,1,1,5.45-5.45A5.45,5.45,0,0,1,48.06,40.72Z"/><circle class="cls-6" cx="48.15" cy="35.31" r="3.83"/></g></g></svg>