<svg xmlns="http://www.w3.org/2000/svg" viewBox="0 0 100.86 100.86"><defs><style>.cls-1{fill:#ff8300;}.cls-2{font-size:12.62px;font-family:TrebuchetMS-Bold, Trebuchet MS;font-weight:700;}.cls-2,.cls-5{fill:#231f20;}.cls-3{letter-spacing:-0.04em;}.cls-4{letter-spacing:-0.06em;}.cls-6{fill:none;stroke:#231f20;stroke-miterlimit:10;stroke-width:1.58px;}</style></defs><g id="Layer_2" data-name="Layer 2"><g id="Layer_1-2" data-name="Layer 1"><path class="cls-1" d="M54.33,28.79c-4.6-6.17-10.38-8.11-17.65-5.35,2.14-5.3,10-9.54,17.55-9.67s15.52,4.07,17.88,9.31C62.31,20.81,59.13,23.55,54.33,28.79Z"/><text class="cls-2" transform="translate(15.01 68.93)">THE <tspan x="0" y="11.7">OW</tspan><tspan class="cls-3" x="20.03" y="11.7">L</tspan><tspan x="26.53" y="11.7"> </tspan><tspan x="0" y="23.39">SEC</tspan><tspan class="cls-4" x="21.35" y="23.39">T</tspan><tspan x="28.32" y="23.39">OR</tspan></text><path class="cls-1" d="M43,57.77c2.19,5.94,11.46,13.94,20.18,19.32,0-3.24,0-6.48,0-9.72,0-1.31.57-1.93,2.22-1.94v13c1.53.88,3,1.65,4.43,2.31a4.55,4.55,0,0,1-.07-.94c.07-5.26.06-10.52,0-15.77,0-1.71.5-2.51,1.94-2.52v20a20.23,20.23,0,0,0,4.65,1.37V49.34C69,59.18,55.69,62.56,43,57.77Z"/><path class="cls-1" d="M76.23,33a9.56,9.56,0,0,0-10-8.21c-5.57.2-9.5,3.89-9.69,9.21-.1,2.59-.13,5.19,0,7.78s-.93,3.37-3.73,2.44c0-3.09.12-6.28,0-9.46a10.1,10.1,0,0,0-10.53-10c-6.11.32-10.35,4.65-9.73,10.76a29.06,29.06,0,0,0,3.1,10.54c4.16,7.74,14.92,12.43,24.27,10C70,53.48,77.77,43.2,76.23,33ZM42.52,41.77a6.06,6.06,0,1,1,6-6.06A6.06,6.06,0,0,1,42.52,41.77ZM66,38.91c-1.79.33-2.54-.55-2.49-2.57.06-3,1.26-4.42,4.14-4.54,1.88-.08,2.87.58,2.85,2.64C70.42,37.36,69.1,38.85,66,38.91Z"/><path class="cls-5" d="M49.29,31.48a8,8,0,0,0-8.07-3.82.52.52,0,0,1-.65-.37c-1.46-3.36-2.94-6.7-4.39-10.06a1.22,1.22,0,0,0-1.24-.81c-1.67,0-3.34,0-5,0a.76.76,0,0,1-.83-.49,3.51,3.51,0,0,0-4.39-1.7,3.58,3.58,0,0,0,1.08,6.92A3.51,3.51,0,0,0,29.22,19a.62.62,0,0,1,.65-.41c1.36,0,2.73,0,4.1,0a.66.66,0,0,1,.68.47q1.76,4,3.53,8.05c.53,1.2.53,1.2-.53,1.95l-.22.16c-.24.23-.44.18-.69,0C35.15,28,33.53,26.78,32,25.55a3.57,3.57,0,0,0-2.47-.9c-1.65.09-3.31,0-5,0a.79.79,0,0,1-.84-.49,3.26,3.26,0,0,0-2.82-2,3.37,3.37,0,0,0-3.35,1.64,3.64,3.64,0,0,0,.15,4,3.54,3.54,0,0,0,6-.52.8.8,0,0,1,.86-.54c1.67,0,3.34,0,5,0a1.53,1.53,0,0,1,.79.24q2.28,1.66,4.52,3.39c.74.56.72.58.3,1.43a4.35,4.35,0,0,0-.27.58.61.61,0,0,1-.68.45c-1.89,0-3.77,0-5.66,0a.81.81,0,0,1-.6-.37,3.51,3.51,0,0,0-4.18-1.95,3.55,3.55,0,0,0-2.57,3.52,3.61,3.61,0,0,0,3,3.46,3.54,3.54,0,0,0,3.69-2,.64.64,0,0,1,.68-.46q2.54,0,5.07,0c.44,0,.53.18.55.57,0,.77.14,1.53.26,2.28s.12.62-.5.62H22.87a.76.76,0,0,1-.82-.51,3.57,3.57,0,0,0-4.17-1.89,3.72,3.72,0,0,0-2.51,2.91A3.54,3.54,0,0,0,22,41.19a.67.67,0,0,1,.67-.5c4.21,0,8.43,0,12.64,0a.9.9,0,0,1,.58.19c.76.69,1.49,1.41,2.3,2.19,0,0-.11.17-.2.27-.87,1-1.73,2-2.64,2.94a1.19,1.19,0,0,1-.78.31c-2.9,0-5.8,0-8.7,0a.81.81,0,0,1-.86-.53,3.45,3.45,0,0,0-3.49-1.93,3.57,3.57,0,0,0-3.1,2.68,3.63,3.63,0,0,0,2.19,4.21A3.5,3.5,0,0,0,25,49.35a.91.91,0,0,1,.95-.58c3.09,0,6.19,0,9.28,0a1.59,1.59,0,0,0,1.31-.57c1.16-1.32,2.35-2.61,3.51-3.94a1,1,0,0,1,1.06-.39A7.71,7.71,0,0,0,47.68,42,8.26,8.26,0,0,0,49.29,31.48ZM25.86,19.33a1.79,1.79,0,1,1,1.79-1.79A1.79,1.79,0,0,1,25.86,19.33Zm-5.42,8.25a1.79,1.79,0,1,1,1.79-1.79A1.8,1.8,0,0,1,20.44,27.58Zm4.23,8.32a1.79,1.79,0,1,1,1.79-1.79A1.8,1.8,0,0,1,24.67,35.9Zm-5.86,5.57a1.79,1.79,0,1,1,1.8-1.79A1.79,1.79,0,0,1,18.81,41.47Zm3,8a1.79,1.79,0,1,1,1.79-1.79A1.8,1.8,0,0,1,21.85,49.51Zm20.59-7.67a6.06,6.06,0,1,1,6.05-6.06A6.06,6.06,0,0,1,42.44,41.84Z"/><circle class="cls-5" cx="42.53" cy="35.83" r="4.26"/><rect class="cls-6" x="0.79" y="0.79" width="99.28" height="99.28"/></g></g></svg>