<svg xmlns="http://www.w3.org/2000/svg" viewBox="0 0 99.28 99.28"><defs><style>.cls-1{fill:#231f20;}.cls-2{font-size:11.35px;font-family:TrebuchetMS-Bold, Trebuchet MS;font-weight:700;}.cls-2,.cls-6{fill:#fff;}.cls-3{letter-spacing:-0.04em;}.cls-4{letter-spacing:-0.06em;}.cls-5{fill:#ff8300;}</style></defs><g id="Layer_2" data-name="Layer 2"><g id="Layer_1-2" data-name="Layer 1"><rect class="cls-1" width="99.28" height="99.28"/><text class="cls-2" transform="translate(21.48 65.79)">THE <tspan x="0" y="10.52">OW</tspan><tspan class="cls-3" x="18.02" y="10.52">L</tspan><tspan x="23.87" y="10.52"> </tspan><tspan x="0" y="21.04">SEC</tspan><tspan class="cls-4" x="19.21" y="21.04">T</tspan><tspan x="25.48" y="21.04">OR</tspan></text><path class="cls-5" d="M56.85,29.68c-4.14-5.55-9.34-7.3-15.88-4.82C42.9,20.1,50,16.28,56.76,16.17s14,3.66,16.09,8.38C64,22.5,61.17,25,56.85,29.68Z"/><path class="cls-5" d="M46.66,55.75C48.63,61.1,57,68.3,64.81,73.13c0-2.91,0-5.83,0-8.74,0-1.19.51-1.74,2-1.75V74.3c1.37.79,2.72,1.49,4,2.08a4.41,4.41,0,0,1-.06-.85c.06-4.73.05-9.46,0-14.19,0-1.53.45-2.25,1.75-2.26v18a18.48,18.48,0,0,0,4.19,1.23V48.17C70,57,58.08,60.06,46.66,55.75Z"/><path class="cls-5" d="M76.56,33.43a8.6,8.6,0,0,0-9-7.39c-5,.17-8.54,3.49-8.72,8.29-.08,2.32-.11,4.66,0,7s-.84,3-3.35,2.2c0-2.79.1-5.66,0-8.52A9.08,9.08,0,0,0,46,26c-5.5.29-9.31,4.18-8.75,9.69A26.05,26.05,0,0,0,40,45.2c3.74,7,13.42,11.19,21.83,9C71,51.89,77.94,42.64,76.56,33.43ZM46.23,41.35a5.45,5.45,0,1,1,5.45-5.44A5.44,5.44,0,0,1,46.23,41.35Zm21.08-2.57c-1.61.3-2.29-.49-2.25-2.31.06-2.73,1.14-4,3.73-4.09,1.69-.07,2.59.53,2.57,2.39C71.33,37.39,70.14,38.73,67.31,38.78Z"/><path class="cls-6" d="M52.32,32.1a7.24,7.24,0,0,0-7.26-3.44.47.47,0,0,1-.59-.33c-1.31-3-2.64-6-3.95-9a1.09,1.09,0,0,0-1.11-.73c-1.5,0-3,0-4.51,0a.69.69,0,0,1-.75-.44,3.14,3.14,0,0,0-3.94-1.53,3.22,3.22,0,0,0,1,6.23,3.16,3.16,0,0,0,3.08-2,.55.55,0,0,1,.58-.36c1.24,0,2.47,0,3.7,0a.58.58,0,0,1,.61.42q1.58,3.61,3.17,7.23c.48,1.09.48,1.09-.47,1.77a2.26,2.26,0,0,0-.2.13c-.21.21-.39.17-.62,0-1.43-1.1-2.89-2.17-4.31-3.28A3.15,3.15,0,0,0,34.5,26c-1.49.07-3,0-4.47,0a.7.7,0,0,1-.75-.44,2.9,2.9,0,0,0-2.53-1.77,3,3,0,0,0-3,1.48,3.28,3.28,0,0,0,.13,3.61,3.18,3.18,0,0,0,5.41-.47.72.72,0,0,1,.77-.48c1.51,0,3,0,4.52,0a1.25,1.25,0,0,1,.7.21q2.06,1.5,4.07,3.05c.66.51.65.52.26,1.28-.08.18-.17.35-.23.53a.55.55,0,0,1-.62.4c-1.69,0-3.39,0-5.09,0a.71.71,0,0,1-.54-.33A3.18,3.18,0,0,0,27,34.47a3.24,3.24,0,0,0,2.72,3.12,3.19,3.19,0,0,0,3.32-1.83.59.59,0,0,1,.62-.41c1.52,0,3,0,4.56,0,.39,0,.47.16.5.51a20.08,20.08,0,0,0,.23,2c.09.54.1.56-.45.56h-10a.67.67,0,0,1-.73-.46,3.22,3.22,0,0,0-3.76-1.7,3.34,3.34,0,0,0-2.25,2.61,3.18,3.18,0,0,0,6,1.9.59.59,0,0,1,.59-.44H39.78a.83.83,0,0,1,.52.17c.68.63,1.34,1.27,2.07,2,0,.05-.1.16-.18.25-.79.88-1.56,1.78-2.37,2.64a1.12,1.12,0,0,1-.71.28c-2.61,0-5.22,0-7.82,0a.73.73,0,0,1-.78-.48,3.09,3.09,0,0,0-3.13-1.74,3.23,3.23,0,0,0-2.8,2.41,3.27,3.27,0,0,0,2,3.79,3.13,3.13,0,0,0,3.94-1.54.84.84,0,0,1,.86-.52c2.78,0,5.57,0,8.35,0a1.38,1.38,0,0,0,1.17-.51C41.93,46,43,44.81,44,43.62a1,1,0,0,1,1-.36,6.91,6.91,0,0,0,5.87-1.69A7.43,7.43,0,0,0,52.32,32.1ZM31.24,21.17a1.61,1.61,0,1,1,1.61-1.61A1.61,1.61,0,0,1,31.24,21.17Zm-4.88,7.42A1.61,1.61,0,1,1,28,27,1.61,1.61,0,0,1,26.36,28.59Zm3.81,7.49a1.62,1.62,0,1,1,1.61-1.62A1.61,1.61,0,0,1,30.17,36.08Zm-5.27,5a1.62,1.62,0,1,1,1.61-1.61A1.61,1.61,0,0,1,24.9,41.09Zm2.73,7.23a1.61,1.61,0,1,1,1.61-1.61A1.61,1.61,0,0,1,27.63,48.32Zm18.52-6.9A5.45,5.45,0,1,1,51.6,36,5.45,5.45,0,0,1,46.15,41.42Z"/><circle class="cls-6" cx="46.24" cy="36.01" r="3.83"/></g></g></svg>