<svg xmlns="http://www.w3.org/2000/svg" viewBox="0 0 286.86 146.16"><defs><style>.cls-1{fill:#ff8300;}.cls-2{fill:#231f20;}</style></defs><g id="Layer_2" data-name="Layer 2"><g id="Layer_1-2" data-name="Layer 1"><path class="cls-1" d="M121.87,24.26c-7.43-10-16.77-13.11-28.51-8.65C96.83,7.06,109.6.21,121.71,0s25.07,6.57,28.86,15C134.75,11.36,129.62,15.79,121.87,24.26Z"/><path class="cls-1" d="M103.57,71.05c3.54,9.59,18.51,22.51,32.59,31.19.06-5.23,0-10.46,0-15.69,0-2.13.93-3.12,3.59-3.13v20.93c2.47,1.4,4.88,2.66,7.15,3.72a8.6,8.6,0,0,1-.12-1.52c.13-8.48.1-17,0-25.46,0-2.76.81-4.06,3.14-4.07v32.37a32,32,0,0,0,7.51,2.19V57.44C145.48,73.32,124.07,78.79,103.57,71.05Z"/><path class="cls-1" d="M157.24,31A15.43,15.43,0,0,0,141,17.72C132,18,125.7,24,125.38,32.59c-.15,4.18-.19,8.38,0,12.55s-1.51,5.44-6,4c0-5,.2-10.15,0-15.28-.44-9.56-8-16.57-17-16.09-9.87.53-16.72,7.51-15.71,17.38a47.09,47.09,0,0,0,5,17c6.72,12.51,24.1,20.07,39.18,16.21C147.22,64.12,159.72,47.52,157.24,31ZM102.8,45.21a9.78,9.78,0,1,1,9.78-9.78A9.78,9.78,0,0,1,102.8,45.21Zm37.83-4.62c-2.89.54-4.09-.88-4-4.14.1-4.91,2-7.15,6.68-7.34,3.05-.13,4.65.93,4.61,4.27C147.86,38.09,145.71,40.49,140.63,40.59Z"/><path class="cls-2" d="M113.74,28.6a13,13,0,0,0-13-6.17.84.84,0,0,1-1-.6C97.29,16.41,94.9,11,92.56,5.6a2,2,0,0,0-2-1.32c-2.7,0-5.4,0-8.1,0a1.24,1.24,0,0,1-1.34-.79A5.66,5.66,0,0,0,74.05.75,5.85,5.85,0,0,0,70.39,7a5.81,5.81,0,0,0,5.4,4.93,5.67,5.67,0,0,0,5.54-3.5,1,1,0,0,1,1-.66c2.21,0,4.42,0,6.63,0a1.06,1.06,0,0,1,1.1.76q2.84,6.49,5.69,13c.85,1.95.86,1.95-.85,3.16a2.8,2.8,0,0,0-.35.25c-.39.37-.71.29-1.12,0-2.58-2-5.19-3.9-7.74-5.89a5.71,5.71,0,0,0-4-1.44c-2.66.13-5.34,0-8,.05a1.25,1.25,0,0,1-1.34-.79,5.28,5.28,0,0,0-4.56-3.18,5.48,5.48,0,0,0-5.42,2.66,5.89,5.89,0,0,0,.25,6.48,5.71,5.71,0,0,0,9.7-.84,1.32,1.32,0,0,1,1.39-.87c2.7,0,5.4,0,8.1,0a2.35,2.35,0,0,1,1.27.39q3.67,2.7,7.3,5.47c1.19.91,1.16.94.47,2.31a8.71,8.71,0,0,0-.42.94,1,1,0,0,1-1.11.73c-3,0-6.09,0-9.13,0a1.32,1.32,0,0,1-1-.6,5.66,5.66,0,0,0-6.74-3.14,5.72,5.72,0,0,0-4.15,5.67,5.81,5.81,0,0,0,4.89,5.59,5.7,5.7,0,0,0,6-3.27,1,1,0,0,1,1.1-.74q4.09,0,8.19,0c.71,0,.85.29.89.92.08,1.23.22,2.46.42,3.67C90,40,90,40,89,40c-6,0-11.95,0-17.92,0a1.21,1.21,0,0,1-1.31-.83,5.76,5.76,0,0,0-6.75-3,6,6,0,0,0-4,4.69,5.62,5.62,0,0,0,2.5,5.67,5.68,5.68,0,0,0,8.26-2.27,1.07,1.07,0,0,1,1.08-.79c6.81,0,13.61,0,20.42,0a1.43,1.43,0,0,1,.93.31c1.22,1.11,2.4,2.27,3.71,3.53a3.74,3.74,0,0,1-.32.44c-1.41,1.59-2.8,3.2-4.25,4.74A1.89,1.89,0,0,1,90,53c-4.68,0-9.37,0-14,0a1.28,1.28,0,0,1-1.38-.84A5.6,5.6,0,0,0,69,49.08a5.77,5.77,0,0,0-5,4.33,5.85,5.85,0,0,0,3.55,6.8,5.65,5.65,0,0,0,7.08-2.77,1.46,1.46,0,0,1,1.53-.92c5,0,10,0,15,0a2.54,2.54,0,0,0,2.1-.92c1.88-2.13,3.81-4.22,5.68-6.36a1.65,1.65,0,0,1,1.71-.63,12.43,12.43,0,0,0,10.54-3A13.34,13.34,0,0,0,113.74,28.6ZM75.9,9a2.9,2.9,0,1,1,2.89-2.9A2.9,2.9,0,0,1,75.9,9ZM67.14,22.3A2.9,2.9,0,1,1,70,19.41,2.89,2.89,0,0,1,67.14,22.3ZM74,35.74a2.9,2.9,0,1,1,2.9-2.9A2.9,2.9,0,0,1,74,35.74Zm-9.45,9a2.89,2.89,0,1,1,2.9-2.89A2.89,2.89,0,0,1,64.52,44.73Zm4.9,13a2.89,2.89,0,1,1,2.89-2.89A2.89,2.89,0,0,1,69.42,57.71Zm33.25-12.39a9.78,9.78,0,1,1,9.78-9.78A9.78,9.78,0,0,1,102.67,45.32Z"/><circle class="cls-2" cx="102.82" cy="35.62" r="6.88"/><path class="cls-2" d="M13,123.64v22.07H8.34V123.64H0V119.5H21.7v4.14Z"/><path class="cls-2" d="M39.83,145.71v-11.8H29.4v11.8H24.75V119.5H29.4v10.27H39.83V119.5h4.6v26.21Z"/><path class="cls-2" d="M54.45,123.64v6.13h8.66v4H54.45v7.85H66.33v4.13H49.79V119.5H66.52v4.14Z"/><path class="cls-2" d="M74.91,132.38A14.8,14.8,0,0,1,78,122.91,9.94,9.94,0,0,1,86.18,119q5.66,0,8.64,3.5t3,9.84q0,6.35-3.13,10.06t-8.86,3.72a9.6,9.6,0,0,1-8.1-3.68Q74.9,138.79,74.91,132.38Zm4.83,0a13.62,13.62,0,0,0,1.55,7.13A5,5,0,0,0,85.82,142a6.2,6.2,0,0,0,5.32-2.47c1.22-1.65,1.84-4,1.84-7.18q0-9.21-6.8-9.21a5.39,5.39,0,0,0-4.78,2.5A11.92,11.92,0,0,0,79.74,132.38Z"/><path class="cls-2" d="M123.05,146.07h-1.91l-5.73-16.53-5.56,16.53h-1.92l-8.6-26.57h4.85l4.92,15.82,5.31-15.82h2l5.33,15.82,4.9-15.82h4.85Z"/><path class="cls-2" d="M134.31,145.71V119.5H139v22.08H150.8v4.13Z"/><path class="cls-2" d="M157.47,144.26l1.72-4.16a9.47,9.47,0,0,0,5.42,1.93c2.73,0,4.09-1,4.09-2.86a4.06,4.06,0,0,0-1-2.56,12.5,12.5,0,0,0-4-2.73,19,19,0,0,1-4.06-2.49,6.66,6.66,0,0,1-1.62-2.32,7.67,7.67,0,0,1-.56-3,6.49,6.49,0,0,1,2.23-5,8.19,8.19,0,0,1,5.71-2c3,0,5.26.56,6.68,1.69l-1.41,4a8.76,8.76,0,0,0-5.18-1.75,3.43,3.43,0,0,0-2.49.85,2.93,2.93,0,0,0-.89,2.21q0,2.25,5,4.69a16.53,16.53,0,0,1,3.79,2.37,7.39,7.39,0,0,1,1.77,2.52,8.27,8.27,0,0,1,.61,3.21,6.47,6.47,0,0,1-2.52,5.24,10.25,10.25,0,0,1-6.73,2.06A11.94,11.94,0,0,1,157.47,144.26Z"/><path class="cls-2" d="M182.1,123.64v6.13h8.66v4H182.1v7.85H194v4.13H177.45V119.5h16.73v4.14Z"/><path class="cls-2" d="M216.26,120.9l-1.91,3.84q-1.56-1.55-5-1.55a6.45,6.45,0,0,0-5.37,2.74,11.14,11.14,0,0,0-2.09,7,10.48,10.48,0,0,0,1.94,6.67A6.24,6.24,0,0,0,209,142a7,7,0,0,0,5.79-2.65l2.17,3.76q-2.85,3-8.34,3t-8.53-3.61q-3-3.62-3.05-9.86a14.37,14.37,0,0,1,3.38-9.73,10.89,10.89,0,0,1,8.63-3.9A12.57,12.57,0,0,1,216.26,120.9Z"/><path class="cls-2" d="M231.38,123.64v22.07h-4.65V123.64h-8.34V119.5h21.7v4.14Z"/><path class="cls-2" d="M239.7,132.38a14.75,14.75,0,0,1,3.07-9.47A9.93,9.93,0,0,1,251,119q5.66,0,8.64,3.5t3,9.84q0,6.35-3.12,10.06t-8.87,3.72a9.58,9.58,0,0,1-8.09-3.68Q239.7,138.79,239.7,132.38Zm4.83,0a13.62,13.62,0,0,0,1.56,7.13,5,5,0,0,0,4.52,2.52,6.23,6.23,0,0,0,5.33-2.47q1.83-2.48,1.83-7.18,0-9.21-6.8-9.21a5.4,5.4,0,0,0-4.78,2.5A11.92,11.92,0,0,0,244.53,132.38Z"/><path class="cls-2" d="M281.49,145.71l-7-10.82c-.71,0-1.69,0-2.95-.13v11h-4.84V119.5c.27,0,1.28,0,3-.13s3.17-.14,4.24-.14q10,0,10,7.73a7.07,7.07,0,0,1-1.38,4.24,7.4,7.4,0,0,1-3.47,2.71l7.75,11.8Zm-9.94-22.16v7.28c.85.07,1.51.11,2,.11a8.45,8.45,0,0,0,4.27-.83c.9-.55,1.35-1.61,1.35-3.2a2.78,2.78,0,0,0-1.45-2.7,10.19,10.19,0,0,0-4.56-.77A10.73,10.73,0,0,0,271.55,123.55Z"/></g></g></svg>