<svg xmlns="http://www.w3.org/2000/svg" viewBox="0 0 232.34 112.33"><defs><style>.cls-1{fill:#231f20;}.cls-2{fill:#ff8300;}</style></defs><g id="Layer_2" data-name="Layer 2"><g id="Layer_1-2" data-name="Layer 1"><path class="cls-1" d="M114.86,21.88V44h-4.65V21.88h-8.34V17.74h21.7v4.14Z"/><path class="cls-1" d="M141.7,44V32.15H131.27V44h-4.66V17.74h4.66V28H141.7V17.74h4.6V44Z"/><path class="cls-1" d="M156.31,21.88V28H165v4h-8.66v7.85h11.88V44H151.66V17.74h16.73v4.14Z"/><path class="cls-1" d="M102.94,64.59A14.84,14.84,0,0,1,106,55.11a9.94,9.94,0,0,1,8.2-3.87q5.66,0,8.65,3.51t3,9.84q0,6.33-3.12,10t-8.86,3.72a9.58,9.58,0,0,1-8.1-3.68Q102.94,71,102.94,64.59Zm4.83,0a13.58,13.58,0,0,0,1.56,7.12,5,5,0,0,0,4.53,2.52,6.21,6.21,0,0,0,5.32-2.47Q121,69.3,121,64.59q0-9.21-6.8-9.22a5.4,5.4,0,0,0-4.77,2.5A11.93,11.93,0,0,0,107.77,64.59Z"/><path class="cls-1" d="M151.09,78.28h-1.92l-5.72-16.54-5.56,16.54H136l-8.6-26.57h4.84l4.92,15.81,5.32-15.81h2l5.33,15.81,4.9-15.81h4.85Z"/><path class="cls-1" d="M162.34,77.92V51.71H167V73.78h11.84v4.14Z"/><path class="cls-1" d="M102.94,110.43l1.72-4.17a9.42,9.42,0,0,0,5.42,1.93q4.1,0,4.1-2.86a4,4,0,0,0-1-2.56,12.38,12.38,0,0,0-4-2.73,18.89,18.89,0,0,1-4.06-2.48,6.72,6.72,0,0,1-1.61-2.32,7.52,7.52,0,0,1-.56-3,6.52,6.52,0,0,1,2.22-5,8.26,8.26,0,0,1,5.72-2q4.55,0,6.67,1.7l-1.41,4A8.74,8.74,0,0,0,111,89.17a3.5,3.5,0,0,0-2.5.85,2.94,2.94,0,0,0-.88,2.21q0,2.26,5,4.69a16.31,16.31,0,0,1,3.79,2.37,7.13,7.13,0,0,1,1.77,2.52,8.18,8.18,0,0,1,.61,3.22,6.49,6.49,0,0,1-2.51,5.24,10.33,10.33,0,0,1-6.74,2.06A12,12,0,0,1,102.94,110.43Z"/><path class="cls-1" d="M127.58,89.8v6.14h8.66v4h-8.66v7.86h11.88v4.13H122.93V85.67h16.73V89.8Z"/><path class="cls-1" d="M161.74,87.06l-1.92,3.85q-1.56-1.56-5-1.56a6.48,6.48,0,0,0-5.37,2.75,11.17,11.17,0,0,0-2.09,7,10.52,10.52,0,0,0,1.94,6.67,6.25,6.25,0,0,0,5.18,2.47,7,7,0,0,0,5.8-2.64l2.16,3.75q-2.84,3-8.33,3a10.55,10.55,0,0,1-8.54-3.62q-3-3.61-3-9.86a14.36,14.36,0,0,1,3.37-9.72,10.88,10.88,0,0,1,8.63-3.91A12.62,12.62,0,0,1,161.74,87.06Z"/><path class="cls-1" d="M176.85,89.8v22.08H172.2V89.8h-8.34V85.67h21.71V89.8Z"/><path class="cls-1" d="M185.17,98.55a14.81,14.81,0,0,1,3.07-9.47,9.93,9.93,0,0,1,8.21-3.88c3.77,0,6.64,1.17,8.64,3.51s3,5.62,3,9.84-1.05,7.57-3.13,10-5,3.73-8.86,3.73a9.58,9.58,0,0,1-8.1-3.69Q185.17,105,185.17,98.55Zm4.83,0a13.55,13.55,0,0,0,1.56,7.12,5,5,0,0,0,4.53,2.52,6.21,6.21,0,0,0,5.32-2.47q1.83-2.46,1.83-7.17,0-9.21-6.79-9.21a5.4,5.4,0,0,0-4.78,2.49A12,12,0,0,0,190,98.55Z"/><path class="cls-1" d="M227,111.88l-7-10.83c-.7,0-1.68,0-2.95-.12v10.95h-4.83V85.67c.26,0,1.27,0,3-.14s3.16-.13,4.24-.13q10,0,10,7.73a7.09,7.09,0,0,1-1.38,4.24,7.37,7.37,0,0,1-3.47,2.7l7.75,11.81ZM217,89.71V97c.86.07,1.52.11,2,.11a8.49,8.49,0,0,0,4.27-.82q1.35-.82,1.35-3.21a2.8,2.8,0,0,0-1.45-2.7,10.25,10.25,0,0,0-4.56-.77A12.48,12.48,0,0,0,217,89.71Z"/><path class="cls-2" d="M61.32,24.26C54.09,14.3,45,11.15,33.56,15.61,36.94,7.06,49.38.21,61.17,0S85.58,6.57,89.28,15C73.87,11.36,68.87,15.79,61.32,24.26Z"/><path class="cls-2" d="M43.5,71.05c3.44,9.59,18,22.51,31.74,31.19.06-5.23,0-10.46,0-15.69,0-2.13.9-3.12,3.49-3.13v20.93c2.41,1.4,4.75,2.66,7,3.72a7.74,7.74,0,0,1-.12-1.52c.12-8.48.1-17,0-25.46,0-2.76.78-4.06,3.06-4.07v32.37a30.36,30.36,0,0,0,7.31,2.19V57.44C84.32,73.32,63.46,78.79,43.5,71.05Z"/><path class="cls-2" d="M95.77,31A15.13,15.13,0,0,0,80,17.72C71.23,18,65.05,24,64.75,32.59c-.15,4.18-.2,8.38,0,12.55s-1.47,5.44-5.87,4c0-5,.19-10.15,0-15.28-.42-9.56-7.77-16.57-16.56-16.09C32.67,18.25,26,25.23,27,35.1a47.91,47.91,0,0,0,4.87,17C38.39,64.63,55.32,72.19,70,68.33,86,64.12,98.19,47.52,95.77,31Zm-53,14.23a9.78,9.78,0,1,1,9.52-9.78A9.66,9.66,0,0,1,42.75,45.21ZM79.6,40.59c-2.81.54-4-.88-3.92-4.14.1-4.91,2-7.15,6.51-7.34,3-.13,4.52.93,4.49,4.27C86.64,38.09,84.55,40.49,79.6,40.59Z"/><path class="cls-1" d="M53.4,28.6a12.54,12.54,0,0,0-12.7-6.17.81.81,0,0,1-1-.6C37.38,16.41,35.05,11,32.77,5.6a1.9,1.9,0,0,0-1.94-1.32c-2.63,0-5.26,0-7.89,0a1.2,1.2,0,0,1-1.3-.79A5.46,5.46,0,0,0,14.74.75,5.87,5.87,0,0,0,11.18,7a5.72,5.72,0,0,0,5.26,4.93,5.51,5.51,0,0,0,5.39-3.5,1,1,0,0,1,1-.66c2.16,0,4.31,0,6.47,0a1,1,0,0,1,1.06.76q2.76,6.49,5.54,13c.84,1.95.84,1.95-.82,3.16a2.7,2.7,0,0,0-.34.25c-.38.37-.69.29-1.1,0-2.5-2-5-3.9-7.53-5.89a5.46,5.46,0,0,0-3.88-1.44c-2.6.13-5.21,0-7.81.05a1.22,1.22,0,0,1-1.31-.79,5.14,5.14,0,0,0-4.43-3.18,5.28,5.28,0,0,0-5.28,2.66,6,6,0,0,0,.23,6.48A5.5,5.5,0,0,0,13.1,22a1.28,1.28,0,0,1,1.35-.87c2.63,0,5.26,0,7.89,0a2.25,2.25,0,0,1,1.24.39q3.59,2.7,7.11,5.47c1.16.91,1.13.94.46,2.31a8.63,8.63,0,0,0-.41.94,1,1,0,0,1-1.08.73c-3,0-5.93,0-8.9,0a1.27,1.27,0,0,1-1-.6,5.46,5.46,0,0,0-6.56-3.14A5.82,5.82,0,0,0,14,38.44a5.53,5.53,0,0,0,5.81-3.27,1,1,0,0,1,1.07-.74q4,0,8,0c.68,0,.82.29.86.92.08,1.23.22,2.46.41,3.67.16,1,.18,1-.79,1-5.82,0-11.64,0-17.46,0a1.19,1.19,0,0,1-1.28-.83,5.55,5.55,0,0,0-6.57-3A5.91,5.91,0,0,0,.05,40.87a5.69,5.69,0,0,0,2.44,5.67,5.47,5.47,0,0,0,8-2.27,1,1,0,0,1,1.05-.79c6.63,0,13.26,0,19.89,0a1.39,1.39,0,0,1,.91.31c1.18,1.11,2.33,2.27,3.61,3.53a3.74,3.74,0,0,1-.32.44C34.31,49.37,33,51,31.54,52.52a1.79,1.79,0,0,1-1.23.5c-4.56,0-9.13,0-13.69,0a1.26,1.26,0,0,1-1.35-.84,5.4,5.4,0,0,0-5.48-3.13,5.66,5.66,0,0,0-4.88,4.33,5.87,5.87,0,0,0,3.45,6.8,5.43,5.43,0,0,0,6.89-2.77,1.44,1.44,0,0,1,1.5-.92c4.87,0,9.73,0,14.6,0a2.46,2.46,0,0,0,2-.92c1.83-2.13,3.7-4.22,5.53-6.36a1.59,1.59,0,0,1,1.66-.63,11.9,11.9,0,0,0,10.27-3A13.59,13.59,0,0,0,53.4,28.6ZM16.54,9a2.86,2.86,0,0,1-2.82-2.9,2.82,2.82,0,1,1,5.64,0A2.86,2.86,0,0,1,16.54,9ZM8,22.3a2.9,2.9,0,0,1,0-5.79A2.9,2.9,0,0,1,8,22.3Zm6.66,13.44a2.9,2.9,0,1,1,2.82-2.9A2.86,2.86,0,0,1,14.67,35.74Zm-9.21,9a2.89,2.89,0,0,1,0-5.78,2.89,2.89,0,0,1,0,5.78Zm4.77,13a2.89,2.89,0,1,1,2.82-2.89A2.86,2.86,0,0,1,10.23,57.71ZM42.62,45.32a9.78,9.78,0,1,1,9.52-9.78A9.66,9.66,0,0,1,42.62,45.32Z"/><ellipse class="cls-1" cx="42.77" cy="35.62" rx="6.7" ry="6.88"/></g></g></svg>