<svg xmlns="http://www.w3.org/2000/svg" viewBox="0 0 98.64 111.58"><defs><style>.cls-1{fill:#ff8300;}.cls-2{fill:#231f20;}</style></defs><g id="Layer_2" data-name="Layer 2"><g id="Layer_1-2" data-name="Layer 1"><path class="cls-1" d="M63,24.26c-7.42-10-16.76-13.11-28.5-8.65C37.92,7.06,50.69.21,62.79,0S87.86,6.57,91.66,15C75.84,11.36,70.71,15.79,63,24.26Z"/><path class="cls-1" d="M44.65,71.05c3.54,9.59,18.51,22.51,32.59,31.19.07-5.23,0-10.46,0-15.69,0-2.13.92-3.12,3.59-3.13v20.93c2.47,1.4,4.87,2.66,7.15,3.72a7,7,0,0,1-.12-1.52c.12-8.48.09-17,0-25.46,0-2.76.81-4.06,3.15-4.07v32.37a31.78,31.78,0,0,0,7.5,2.19V57.44C86.56,73.32,65.15,78.79,44.65,71.05Z"/><path class="cls-1" d="M98.32,31a15.43,15.43,0,0,0-16.2-13.26C73.13,18,66.78,24,66.47,32.59c-.15,4.18-.2,8.38,0,12.55s-1.51,5.44-6,4c0-5,.19-10.15,0-15.28-.44-9.56-8-16.57-17-16.09-9.86.53-16.71,7.51-15.7,17.38a46.7,46.7,0,0,0,5,17c6.71,12.51,24.09,20.07,39.18,16.21C88.31,64.12,100.8,47.52,98.32,31ZM43.88,45.21a9.78,9.78,0,1,1,9.78-9.78A9.78,9.78,0,0,1,43.88,45.21Zm37.84-4.62c-2.89.54-4.1-.88-4-4.14.11-4.91,2-7.15,6.69-7.34C87.42,29,89,30,89,33.38,88.94,38.09,86.8,40.49,81.72,40.59Z"/><path class="cls-2" d="M54.82,28.6a13,13,0,0,0-13-6.17.84.84,0,0,1-1.05-.6C38.38,16.41,36,11,33.64,5.6a2,2,0,0,0-2-1.32c-2.7,0-5.4,0-8.1,0a1.25,1.25,0,0,1-1.34-.79A5.65,5.65,0,0,0,15.14.75a5.78,5.78,0,0,0,1.74,11.18,5.66,5.66,0,0,0,5.53-3.5,1,1,0,0,1,1-.66c2.21,0,4.43,0,6.64,0a1.05,1.05,0,0,1,1.09.76Q34,15,36.87,21.52c.86,1.95.86,1.95-.84,3.16a2.9,2.9,0,0,0-.36.25c-.38.37-.71.29-1.12,0C32,22.93,29.37,21,26.81,19a5.69,5.69,0,0,0-4-1.44c-2.67.13-5.34,0-8,.05a1.26,1.26,0,0,1-1.35-.79,5.26,5.26,0,0,0-4.55-3.18A5.46,5.46,0,0,0,3.5,16.32a5.89,5.89,0,0,0,.24,6.48A5.72,5.72,0,0,0,13.45,22a1.31,1.31,0,0,1,1.39-.87c2.7,0,5.4,0,8.1,0a2.34,2.34,0,0,1,1.26.39q3.69,2.7,7.3,5.47c1.2.91,1.17.94.48,2.31a7.11,7.11,0,0,0-.42.94,1,1,0,0,1-1.11.73c-3.05,0-6.09,0-9.14,0a1.31,1.31,0,0,1-1-.6A5.7,5.7,0,0,0,9.45,32.85a5.79,5.79,0,0,0,4.88,5.59,5.7,5.7,0,0,0,6-3.27,1,1,0,0,1,1.11-.74c2.73,0,5.45,0,8.18,0,.71,0,.85.29.89.92.08,1.23.23,2.46.42,3.67.16,1,.19,1-.81,1-6,0-11.95,0-17.93,0a1.21,1.21,0,0,1-1.31-.83,5.76,5.76,0,0,0-6.75-3,5.93,5.93,0,0,0-4,4.69,5.6,5.6,0,0,0,2.5,5.67,5.68,5.68,0,0,0,8.26-2.27,1.06,1.06,0,0,1,1.07-.79c6.81,0,13.62,0,20.43,0a1.45,1.45,0,0,1,.93.31c1.22,1.11,2.4,2.27,3.7,3.53a2.84,2.84,0,0,1-.32.44c-1.4,1.59-2.79,3.2-4.25,4.74a1.89,1.89,0,0,1-1.27.5c-4.68,0-9.36,0-14,0a1.28,1.28,0,0,1-1.39-.84,5.58,5.58,0,0,0-5.63-3.13,5.77,5.77,0,0,0-5,4.33,5.85,5.85,0,0,0,3.54,6.8,5.64,5.64,0,0,0,7.08-2.77,1.47,1.47,0,0,1,1.53-.92c5,0,10,0,15,0a2.55,2.55,0,0,0,2.1-.92c1.87-2.13,3.8-4.22,5.67-6.36a1.67,1.67,0,0,1,1.71-.63,12.42,12.42,0,0,0,10.54-3A13.33,13.33,0,0,0,54.82,28.6ZM17,9a2.9,2.9,0,1,1,2.9-2.9A2.89,2.89,0,0,1,17,9ZM8.23,22.3a2.9,2.9,0,1,1,2.89-2.89A2.9,2.9,0,0,1,8.23,22.3Zm6.83,13.44A2.9,2.9,0,1,1,18,32.84,2.89,2.89,0,0,1,15.06,35.74Zm-9.45,9A2.89,2.89,0,1,1,8.5,41.84,2.89,2.89,0,0,1,5.61,44.73Zm4.89,13a2.89,2.89,0,1,1,2.9-2.89A2.89,2.89,0,0,1,10.5,57.71ZM43.75,45.32a9.78,9.78,0,1,1,9.78-9.78A9.78,9.78,0,0,1,43.75,45.32Z"/><circle class="cls-2" cx="43.91" cy="35.62" r="6.88"/></g></g></svg>